# Blender 4.1.1
# www.blender.org
o Screen_1
v -4.315493 4.038738 0.037140
v -3.940180 4.038738 -0.293224
v -4.315493 2.538738 0.037140
v -3.940180 3.038738 -0.293224
v -4.315493 1.038738 0.037140
v -3.940180 1.538738 -0.293224
v -3.940180 1.038738 -0.293224
v -4.315493 0.038738 0.037140
v -3.940180 4.538738 -0.293224
v -3.940180 3.538738 -0.293224
v -3.531301 2.538738 -0.580157
v -3.531301 2.038738 -0.580157
v -3.940180 0.038738 -0.293224
v -3.531301 0.538738 -0.580157
v -3.109587 3.538738 -0.847422
v -3.531301 1.038738 -0.580157
v -3.109587 1.038738 -0.847421
v -3.531301 0.038738 -0.580157
v -3.109587 4.538738 -0.847422
v -2.662717 4.538738 -1.071716
v -2.662717 3.038738 -1.071716
v -2.662717 2.538738 -1.071716
v -3.109587 2.038738 -0.847421
v -2.662717 1.538738 -1.071715
v -3.109587 1.538738 -0.847421
v -2.662717 2.038738 -1.071715
v -2.201023 1.538738 -1.260928
v -2.662717 0.538738 -1.071715
v -2.662717 0.038738 -1.071715
v -1.728721 4.038738 -1.425037
v -2.201023 4.538738 -1.260928
v -2.201023 3.538738 -1.260928
v -1.728721 3.538738 -1.425037
v -1.728721 2.038738 -1.425037
v -2.201023 1.038738 -1.260927
v -1.728721 0.038737 -1.425037
v -1.240248 4.038738 -1.530262
v -1.240248 4.538738 -1.530262
v -1.728721 1.038738 -1.425037
v -1.240248 1.538738 -1.530262
v -0.748306 4.038738 -1.615071
v -0.748306 4.538738 -1.615071
v -1.240248 2.538738 -1.530262
v -1.240248 3.038738 -1.530262
v -0.748306 2.038738 -1.615071
v -1.240248 2.038738 -1.530262
v -0.249436 4.538738 -1.648653
v -0.249436 3.538738 -1.648653
v -0.748306 2.538738 -1.615071
v -0.748306 0.538737 -1.615071
v -0.249436 0.038737 -1.648653
v -0.249436 2.538738 -1.648653
v 0.249435 1.538738 -1.648653
v -0.249436 1.038738 -1.648653
v 0.748306 3.538738 -1.615072
v 0.249435 4.038738 -1.648653
v 0.249435 2.038738 -1.648653
v 0.249435 1.038738 -1.648653
v 1.240249 2.538738 -1.530262
v 1.240249 2.038738 -1.530262
v 0.748306 1.038738 -1.615072
v 0.748306 0.038737 -1.615072
v 1.240249 4.038738 -1.530262
v 1.240249 3.538738 -1.530262
v 1.728722 0.038738 -1.425037
v 2.201022 4.538738 -1.260928
v 2.201022 3.538738 -1.260928
v 1.728722 4.038738 -1.425037
v 1.728722 2.038738 -1.425037
v 2.201022 0.038738 -1.260928
v 2.662716 4.538738 -1.071717
v 2.662716 3.538738 -1.071717
v 2.662716 2.538738 -1.071717
v 2.201022 2.038738 -1.260928
v 2.662716 2.038738 -1.071717
v 2.662716 1.538738 -1.071717
v 2.662716 4.038738 -1.071717
v 2.662716 1.038738 -1.071717
v 3.531299 2.538738 -0.580159
v 3.109586 2.038738 -0.847423
v 3.109586 2.538738 -0.847423
v 3.109586 1.538738 -0.847423
v 3.109586 1.038738 -0.847423
v 3.109586 0.038738 -0.847423
v 3.531299 2.038738 -0.580159
v 3.940176 2.038738 -0.293227
v 3.531299 1.038737 -0.580159
v 3.940176 1.038738 -0.293227
v 3.531299 0.038737 -0.580159
v 3.531299 0.538737 -0.580159
v 4.315489 4.538738 0.037137
v 3.940176 4.038738 -0.293227
v 4.315489 2.038738 0.037137
v 4.315489 1.038738 0.037137
v -4.315493 4.538738 0.037140
v -4.315493 3.538738 0.037140
v -4.315493 3.038738 0.037140
v -4.315493 1.538738 0.037140
v -4.315493 2.038738 0.037140
v -4.315493 0.538738 0.037140
v -3.940180 0.538738 -0.293224
v -3.531301 4.038738 -0.580158
v -3.531301 4.538738 -0.580158
v -3.531301 3.038738 -0.580157
v -3.940180 2.538738 -0.293224
v -3.940180 2.038738 -0.293224
v -3.109587 3.038738 -0.847421
v -3.531301 3.538738 -0.580157
v -3.531301 1.538738 -0.580157
v -3.109587 0.538738 -0.847421
v -3.109587 4.038738 -0.847422
v -2.662717 3.538738 -1.071716
v -3.109587 2.538738 -0.847421
v -3.109587 0.038738 -0.847421
v -2.662717 4.038738 -1.071716
v -2.201023 3.038738 -1.260928
v -2.201023 2.038738 -1.260928
v -2.662717 1.038738 -1.071715
v -2.201023 0.038738 -1.260927
v -2.201023 4.038738 -1.260928
v -1.728721 4.538738 -1.425037
v -1.728721 2.538738 -1.425037
v -2.201023 2.538738 -1.260928
v -2.201023 0.538738 -1.260927
v -1.240248 3.538738 -1.530262
v -1.728721 3.038738 -1.425037
v -1.728721 1.538738 -1.425037
v -1.728721 0.538737 -1.425037
v -1.240248 1.038738 -1.530262
v -0.748306 1.538738 -1.615071
v -1.240248 0.538738 -1.530262
v -1.240248 0.038738 -1.530262
v -0.748306 0.038737 -1.615071
v -0.249436 4.038738 -1.648653
v -0.748306 3.038738 -1.615071
v -0.748306 3.538738 -1.615071
v -0.249436 2.038738 -1.648653
v -0.748306 1.038738 -1.615071
v -0.249436 3.038738 -1.648653
v 0.249435 3.538738 -1.648653
v 0.249435 2.538738 -1.648653
v -0.249436 1.538738 -1.648653
v 0.249435 0.038738 -1.648653
v -0.249436 0.538737 -1.648653
v 0.249435 4.538738 -1.648653
v 0.748306 4.038738 -1.615072
v 0.249435 3.038738 -1.648653
v 0.748306 3.038738 -1.615072
v 0.748306 1.538738 -1.615072
v 0.249435 0.538738 -1.648653
v 0.748306 4.538738 -1.615072
v 0.748306 2.038738 -1.615072
v 0.748306 2.538738 -1.615072
v 1.240249 1.038738 -1.530262
v 0.748306 0.538737 -1.615072
v 1.240249 0.038738 -1.530262
v 1.240249 0.538738 -1.530262
v 1.240249 4.538738 -1.530262
v 1.728722 3.538738 -1.425037
v 1.240249 3.038738 -1.530262
v 1.728722 3.038738 -1.425037
v 1.728722 2.538738 -1.425037
v 1.240249 1.538738 -1.530262
v 1.728722 0.538738 -1.425037
v 1.728722 4.538738 -1.425038
v 2.201022 2.538738 -1.260928
v 1.728722 1.538738 -1.425037
v 2.201022 1.538738 -1.260928
v 1.728722 1.038738 -1.425037
v 2.201022 1.038738 -1.260928
v 2.201022 4.038738 -1.260928
v 2.201022 3.038738 -1.260928
v 2.201022 0.538738 -1.260928
v 3.109586 4.038738 -0.847423
v 2.662716 3.038738 -1.071717
v 2.662716 0.038738 -1.071717
v 2.662716 0.538738 -1.071717
v 3.109586 4.538738 -0.847423
v 3.531299 4.538738 -0.580159
v 3.109586 3.538738 -0.847423
v 3.531299 3.538738 -0.580159
v 3.109586 3.038738 -0.847423
v 3.109586 0.538738 -0.847423
v 3.940176 4.538738 -0.293227
v 3.940176 3.538738 -0.293227
v 3.531299 4.038738 -0.580159
v 3.531299 3.038738 -0.580159
v 3.940176 3.038738 -0.293227
v 3.531299 1.538737 -0.580159
v 3.940176 1.538738 -0.293227
v 4.315489 4.038738 0.037137
v 4.315489 3.038738 0.037137
v 4.315489 3.538738 0.037137
v 3.940176 2.538738 -0.293227
v 4.315489 2.538738 0.037137
v 4.315489 1.538738 0.037137
v 4.315489 0.538738 0.037137
v 3.940176 0.038738 -0.293227
v 4.315489 0.038738 0.037137
v 3.940176 0.538738 -0.293227
vn 0.6607 -0.0000 0.7506
vn 0.5744 -0.0000 0.8186
vn 0.5353 -0.0000 0.8447
vn 0.4486 -0.0000 0.8937
vn 0.3792 -0.0000 0.9253
vn 0.3282 -0.0000 0.9446
vn 0.2106 -0.0000 0.9776
vn 0.1699 -0.0000 0.9855
vn 0.0672 -0.0000 0.9977
vn -0.0000 -0.0000 1.0000
vn -0.0672 -0.0000 0.9977
vn -0.1699 -0.0000 0.9855
vn -0.2106 -0.0000 0.9776
vn -0.3282 -0.0000 0.9446
vn -0.3792 -0.0000 0.9253
vn -0.4486 -0.0000 0.8937
vn -0.5353 -0.0000 0.8447
vn -0.5744 -0.0000 0.8186
vn -0.6607 -0.0000 0.7506
vt 0.000000 0.888888
vt 0.052675 0.888888
vt 0.052675 0.999999
vt 0.000000 0.999999
vt 0.000000 0.777777
vt 0.052675 0.777777
vt 0.000000 0.666666
vt 0.052675 0.666666
vt 0.000000 0.555555
vt 0.052675 0.555555
vt 0.000000 0.444444
vt 0.052675 0.444444
vt 0.000000 0.333333
vt 0.052675 0.333333
vt 0.000000 0.222222
vt 0.052675 0.222222
vt 0.000000 0.111111
vt 0.052675 0.111111
vt 0.000000 0.000000
vt 0.052675 0.000000
vt 0.105299 0.888888
vt 0.105299 0.999999
vt 0.105299 0.777777
vt 0.105299 0.666666
vt 0.105299 0.555555
vt 0.105299 0.444444
vt 0.105299 0.333333
vt 0.105299 0.222222
vt 0.105299 0.111111
vt 0.105299 0.000000
vt 0.157898 0.888888
vt 0.157898 1.000000
vt 0.157898 0.777777
vt 0.157898 0.666667
vt 0.157898 0.555555
vt 0.157898 0.444444
vt 0.157898 0.333333
vt 0.157898 0.222222
vt 0.157898 0.111111
vt 0.157898 0.000000
vt 0.210573 0.888888
vt 0.210573 1.000000
vt 0.210573 0.777777
vt 0.210573 0.666666
vt 0.210573 0.555555
vt 0.210573 0.444444
vt 0.210573 0.333333
vt 0.210573 0.222222
vt 0.210573 0.111111
vt 0.210573 0.000000
vt 0.263139 0.888889
vt 0.263139 0.999999
vt 0.263139 0.777777
vt 0.263139 0.666667
vt 0.263139 0.555555
vt 0.263139 0.444444
vt 0.263139 0.333333
vt 0.263139 0.222222
vt 0.263139 0.111111
vt 0.263139 0.000000
vt 0.315814 0.888889
vt 0.315814 1.000000
vt 0.315814 0.777778
vt 0.315815 0.666666
vt 0.315815 0.555555
vt 0.315815 0.444444
vt 0.315815 0.333333
vt 0.315814 0.222222
vt 0.315815 0.111111
vt 0.315815 -0.000000
vt 0.368456 0.888889
vt 0.368456 1.000000
vt 0.368456 0.777778
vt 0.368456 0.666667
vt 0.368456 0.555555
vt 0.368456 0.444444
vt 0.368456 0.333333
vt 0.368456 0.222222
vt 0.368456 0.111111
vt 0.368456 0.000000
vt 0.421047 0.888889
vt 0.421047 1.000000
vt 0.421047 0.777778
vt 0.421047 0.666667
vt 0.421047 0.555555
vt 0.421047 0.444445
vt 0.421047 0.333333
vt 0.421047 0.222222
vt 0.421047 0.111111
vt 0.421047 -0.000000
vt 0.473722 0.888889
vt 0.473722 1.000000
vt 0.473722 0.777778
vt 0.473722 0.666667
vt 0.473722 0.555556
vt 0.473722 0.444445
vt 0.473722 0.333333
vt 0.473722 0.222222
vt 0.473722 0.111111
vt 0.473722 -0.000000
vt 0.526278 0.888889
vt 0.526278 1.000000
vt 0.526278 0.777778
vt 0.526278 0.666667
vt 0.526278 0.555555
vt 0.526278 0.444445
vt 0.526278 0.333333
vt 0.526278 0.222222
vt 0.526278 0.111111
vt 0.526278 0.000000
vt 0.578954 0.888889
vt 0.578954 1.000000
vt 0.578954 0.777778
vt 0.578954 0.666667
vt 0.578954 0.555556
vt 0.578954 0.444444
vt 0.578954 0.333334
vt 0.578954 0.222222
vt 0.578954 0.111111
vt 0.578954 0.000000
vt 0.631545 0.888889
vt 0.631545 1.000000
vt 0.631545 0.777778
vt 0.631545 0.666667
vt 0.631545 0.555556
vt 0.631545 0.444445
vt 0.631545 0.333333
vt 0.631545 0.222222
vt 0.631545 0.111111
vt 0.631545 0.000000
vt 0.684186 0.888889
vt 0.684186 1.000000
vt 0.684186 0.777778
vt 0.684186 0.666667
vt 0.684186 0.555556
vt 0.684186 0.444445
vt 0.684186 0.333333
vt 0.684186 0.222222
vt 0.684186 0.111111
vt 0.684186 0.000000
vt 0.736861 0.888889
vt 0.736861 1.000000
vt 0.736861 0.777778
vt 0.736861 0.666667
vt 0.736861 0.555555
vt 0.736861 0.444445
vt 0.736861 0.333334
vt 0.736861 0.222222
vt 0.736861 0.111111
vt 0.736861 0.000000
vt 0.789427 0.888889
vt 0.789427 1.000000
vt 0.789427 0.777778
vt 0.789427 0.666667
vt 0.789427 0.555556
vt 0.789427 0.444445
vt 0.789427 0.333334
vt 0.789427 0.222222
vt 0.789427 0.111111
vt 0.789427 0.000000
vt 0.842102 0.888889
vt 0.842102 1.000000
vt 0.842102 0.777778
vt 0.842102 0.666667
vt 0.842102 0.555556
vt 0.842102 0.444445
vt 0.842102 0.333334
vt 0.842102 0.222223
vt 0.842102 0.111111
vt 0.842102 0.000000
vt 0.894701 0.888889
vt 0.894701 1.000000
vt 0.894701 0.777778
vt 0.894701 0.666667
vt 0.894701 0.555556
vt 0.894701 0.444445
vt 0.894701 0.333333
vt 0.894701 0.222222
vt 0.894701 0.111111
vt 0.894701 0.000000
vt 0.947325 0.888889
vt 0.947325 1.000000
vt 0.947325 0.777778
vt 0.947325 0.666667
vt 0.947325 0.555556
vt 0.947325 0.444445
vt 0.947325 0.333334
vt 0.947325 0.222223
vt 0.947325 0.111112
vt 0.947325 0.000000
vt 1.000000 0.888889
vt 1.000000 1.000000
vt 1.000000 0.777778
vt 1.000000 0.666667
vt 1.000000 0.555556
vt 1.000000 0.444445
vt 1.000000 0.333334
vt 1.000000 0.222222
vt 1.000000 0.111111
vt 1.000000 0.000000
s 0
f 1/1/1 2/2/1 9/3/1 95/4/1
f 96/5/1 10/6/1 2/2/1 1/1/1
f 97/7/1 4/8/1 10/6/1 96/5/1
f 3/9/1 105/10/1 4/8/1 97/7/1
f 99/11/1 106/12/1 105/10/1 3/9/1
f 98/13/1 6/14/1 106/12/1 99/11/1
f 5/15/1 7/16/1 6/14/1 98/13/1
f 100/17/1 101/18/1 7/16/1 5/15/1
f 8/19/1 13/20/1 101/18/1 100/17/1
f 2/2/2 102/21/2 103/22/2 9/3/2
f 10/6/2 108/23/2 102/21/2 2/2/2
f 4/8/2 104/24/2 108/23/2 10/6/2
f 105/10/2 11/25/2 104/24/2 4/8/2
f 106/12/2 12/26/2 11/25/2 105/10/2
f 6/14/2 109/27/2 12/26/2 106/12/2
f 7/16/2 16/28/2 109/27/2 6/14/2
f 101/18/2 14/29/2 16/28/2 7/16/2
f 13/20/2 18/30/2 14/29/2 101/18/2
f 102/21/3 111/31/3 19/32/3 103/22/3
f 108/23/3 15/33/3 111/31/3 102/21/3
f 104/24/3 107/34/3 15/33/3 108/23/3
f 11/25/3 113/35/3 107/34/3 104/24/3
f 12/26/3 23/36/3 113/35/3 11/25/3
f 109/27/3 25/37/3 23/36/3 12/26/3
f 16/28/3 17/38/3 25/37/3 109/27/3
f 14/29/3 110/39/3 17/38/3 16/28/3
f 18/30/3 114/40/3 110/39/3 14/29/3
f 111/31/4 115/41/4 20/42/4 19/32/4
f 15/33/4 112/43/4 115/41/4 111/31/4
f 107/34/4 21/44/4 112/43/4 15/33/4
f 113/35/4 22/45/4 21/44/4 107/34/4
f 23/36/4 26/46/4 22/45/4 113/35/4
f 25/37/4 24/47/4 26/46/4 23/36/4
f 17/38/4 118/48/4 24/47/4 25/37/4
f 110/39/4 28/49/4 118/48/4 17/38/4
f 114/40/4 29/50/4 28/49/4 110/39/4
f 115/41/5 120/51/5 31/52/5 20/42/5
f 112/43/5 32/53/5 120/51/5 115/41/5
f 21/44/5 116/54/5 32/53/5 112/43/5
f 22/45/5 123/55/5 116/54/5 21/44/5
f 26/46/5 117/56/5 123/55/5 22/45/5
f 24/47/5 27/57/5 117/56/5 26/46/5
f 118/48/5 35/58/5 27/57/5 24/47/5
f 28/49/5 124/59/5 35/58/5 118/48/5
f 29/50/5 119/60/5 124/59/5 28/49/5
f 120/51/6 30/61/6 121/62/6 31/52/6
f 32/53/6 33/63/6 30/61/6 120/51/6
f 116/54/6 126/64/6 33/63/6 32/53/6
f 123/55/6 122/65/6 126/64/6 116/54/6
f 117/56/6 34/66/6 122/65/6 123/55/6
f 27/57/6 127/67/6 34/66/6 117/56/6
f 35/58/6 39/68/6 127/67/6 27/57/6
f 124/59/6 128/69/6 39/68/6 35/58/6
f 119/60/6 36/70/6 128/69/6 124/59/6
f 30/61/7 37/71/7 38/72/7 121/62/7
f 33/63/7 125/73/7 37/71/7 30/61/7
f 126/64/7 44/74/7 125/73/7 33/63/7
f 122/65/7 43/75/7 44/74/7 126/64/7
f 34/66/7 46/76/7 43/75/7 122/65/7
f 127/67/7 40/77/7 46/76/7 34/66/7
f 39/68/7 129/78/7 40/77/7 127/67/7
f 128/69/7 131/79/7 129/78/7 39/68/7
f 36/70/7 132/80/7 131/79/7 128/69/7
f 37/71/8 41/81/8 42/82/8 38/72/8
f 125/73/8 136/83/8 41/81/8 37/71/8
f 44/74/8 135/84/8 136/83/8 125/73/8
f 43/75/8 49/85/8 135/84/8 44/74/8
f 46/76/8 45/86/8 49/85/8 43/75/8
f 40/77/8 130/87/8 45/86/8 46/76/8
f 129/78/8 138/88/8 130/87/8 40/77/8
f 131/79/8 50/89/8 138/88/8 129/78/8
f 132/80/8 133/90/8 50/89/8 131/79/8
f 41/81/9 134/91/9 47/92/9 42/82/9
f 136/83/9 48/93/9 134/91/9 41/81/9
f 135/84/9 139/94/9 48/93/9 136/83/9
f 49/85/9 52/95/9 139/94/9 135/84/9
f 45/86/9 137/96/9 52/95/9 49/85/9
f 130/87/9 142/97/9 137/96/9 45/86/9
f 138/88/9 54/98/9 142/97/9 130/87/9
f 50/89/9 144/99/9 54/98/9 138/88/9
f 133/90/9 51/100/9 144/99/9 50/89/9
f 134/91/10 56/101/10 145/102/10 47/92/10
f 48/93/10 140/103/10 56/101/10 134/91/10
f 139/94/10 147/104/10 140/103/10 48/93/10
f 52/95/10 141/105/10 147/104/10 139/94/10
f 137/96/10 57/106/10 141/105/10 52/95/10
f 142/97/10 53/107/10 57/106/10 137/96/10
f 54/98/10 58/108/10 53/107/10 142/97/10
f 144/99/10 150/109/10 58/108/10 54/98/10
f 51/100/10 143/110/10 150/109/10 144/99/10
f 56/101/11 146/111/11 151/112/11 145/102/11
f 140/103/11 55/113/11 146/111/11 56/101/11
f 147/104/11 148/114/11 55/113/11 140/103/11
f 141/105/11 153/115/11 148/114/11 147/104/11
f 57/106/11 152/116/11 153/115/11 141/105/11
f 53/107/11 149/117/11 152/116/11 57/106/11
f 58/108/11 61/118/11 149/117/11 53/107/11
f 150/109/11 155/119/11 61/118/11 58/108/11
f 143/110/11 62/120/11 155/119/11 150/109/11
f 146/111/12 63/121/12 158/122/12 151/112/12
f 55/113/12 64/123/12 63/121/12 146/111/12
f 148/114/12 160/124/12 64/123/12 55/113/12
f 153/115/12 59/125/12 160/124/12 148/114/12
f 152/116/12 60/126/12 59/125/12 153/115/12
f 149/117/12 163/127/12 60/126/12 152/116/12
f 61/118/12 154/128/12 163/127/12 149/117/12
f 155/119/12 157/129/12 154/128/12 61/118/12
f 62/120/12 156/130/12 157/129/12 155/119/12
f 63/121/13 68/131/13 165/132/13 158/122/13
f 64/123/13 159/133/13 68/131/13 63/121/13
f 160/124/13 161/134/13 159/133/13 64/123/13
f 59/125/13 162/135/13 161/134/13 160/124/13
f 60/126/13 69/136/13 162/135/13 59/125/13
f 163/127/13 167/137/13 69/136/13 60/126/13
f 154/128/13 169/138/13 167/137/13 163/127/13
f 157/129/13 164/139/13 169/138/13 154/128/13
f 156/130/13 65/140/13 164/139/13 157/129/13
f 68/131/14 171/141/14 66/142/14 165/132/14
f 159/133/14 67/143/14 171/141/14 68/131/14
f 161/134/14 172/144/14 67/143/14 159/133/14
f 162/135/14 166/145/14 172/144/14 161/134/14
f 69/136/14 74/146/14 166/145/14 162/135/14
f 167/137/14 168/147/14 74/146/14 69/136/14
f 169/138/14 170/148/14 168/147/14 167/137/14
f 164/139/14 173/149/14 170/148/14 169/138/14
f 65/140/14 70/150/14 173/149/14 164/139/14
f 171/141/15 77/151/15 71/152/15 66/142/15
f 67/143/15 72/153/15 77/151/15 171/141/15
f 172/144/15 175/154/15 72/153/15 67/143/15
f 166/145/15 73/155/15 175/154/15 172/144/15
f 74/146/15 75/156/15 73/155/15 166/145/15
f 168/147/15 76/157/15 75/156/15 74/146/15
f 170/148/15 78/158/15 76/157/15 168/147/15
f 173/149/15 177/159/15 78/158/15 170/148/15
f 70/150/15 176/160/15 177/159/15 173/149/15
f 77/151/16 174/161/16 178/162/16 71/152/16
f 72/153/16 180/163/16 174/161/16 77/151/16
f 175/154/16 182/164/16 180/163/16 72/153/16
f 73/155/16 81/165/16 182/164/16 175/154/16
f 75/156/16 80/166/16 81/165/16 73/155/16
f 76/157/16 82/167/16 80/166/16 75/156/16
f 78/158/16 83/168/16 82/167/16 76/157/16
f 177/159/16 183/169/16 83/168/16 78/158/16
f 176/160/16 84/170/16 183/169/16 177/159/16
f 174/161/17 186/171/17 179/172/17 178/162/17
f 180/163/17 181/173/17 186/171/17 174/161/17
f 182/164/17 187/174/17 181/173/17 180/163/17
f 81/165/17 79/175/17 187/174/17 182/164/17
f 80/166/17 85/176/17 79/175/17 81/165/17
f 82/167/17 189/177/17 85/176/17 80/166/17
f 83/168/17 87/178/17 189/177/17 82/167/17
f 183/169/17 90/179/17 87/178/17 83/168/17
f 84/170/17 89/180/17 90/179/17 183/169/17
f 186/171/18 92/181/18 184/182/18 179/172/18
f 181/173/18 185/183/18 92/181/18 186/171/18
f 187/174/18 188/184/18 185/183/18 181/173/18
f 79/175/18 194/185/18 188/184/18 187/174/18
f 85/176/18 86/186/18 194/185/18 79/175/18
f 189/177/18 190/187/18 86/186/18 85/176/18
f 87/178/18 88/188/18 190/187/18 189/177/18
f 90/179/18 200/189/18 88/188/18 87/178/18
f 89/180/18 198/190/18 200/189/18 90/179/18
f 92/181/19 191/191/19 91/192/19 184/182/19
f 185/183/19 193/193/19 191/191/19 92/181/19
f 188/184/19 192/194/19 193/193/19 185/183/19
f 194/185/19 195/195/19 192/194/19 188/184/19
f 86/186/19 93/196/19 195/195/19 194/185/19
f 190/187/19 196/197/19 93/196/19 86/186/19
f 88/188/19 94/198/19 196/197/19 190/187/19
f 200/189/19 197/199/19 94/198/19 88/188/19
f 198/190/19 199/200/19 197/199/19 200/189/19
