# Blender v3.6.1 OBJ File: 'tDisplay_addon.blend'
# www.blender.org
o Screen_1_OBJ.001
v -5.288977 0.500000 -0.000000
v -5.288977 0.000000 0.000000
v -5.038977 -0.000000 -0.433013
v -5.038977 0.500000 -0.433013
v -5.288977 1.000000 -0.000000
v -5.288977 0.500000 -0.000000
v -5.038977 0.500000 -0.433013
v -5.038977 1.000000 -0.433013
v -5.288977 1.500000 -0.000000
v -5.288977 1.000000 -0.000000
v -5.038977 1.000000 -0.433013
v -5.038977 1.500000 -0.433013
v -5.288977 2.000000 -0.000000
v -5.288977 1.500000 -0.000000
v -5.038977 1.500000 -0.433013
v -5.038977 2.000000 -0.433013
v -5.288977 2.500000 -0.000000
v -5.288977 2.000000 -0.000000
v -5.038977 2.000000 -0.433013
v -5.038977 2.500000 -0.433013
v -5.288977 3.000000 -0.000000
v -5.288977 2.500000 -0.000000
v -5.038977 2.500000 -0.433013
v -5.038977 3.000000 -0.433013
v -5.038977 0.500000 -0.433013
v -5.038977 -0.000000 -0.433013
v -4.759380 -0.000000 -0.847531
v -4.759380 0.500000 -0.847532
v -5.038977 1.000000 -0.433013
v -5.038977 0.500000 -0.433013
v -4.759380 0.500000 -0.847532
v -4.759380 1.000000 -0.847532
v -5.038977 1.500000 -0.433013
v -5.038977 1.000000 -0.433013
v -4.759380 1.000000 -0.847532
v -4.759380 1.500000 -0.847532
v -5.038977 2.000000 -0.433013
v -5.038977 1.500000 -0.433013
v -4.759380 1.500000 -0.847532
v -4.759380 2.000000 -0.847532
v -5.038977 2.500000 -0.433013
v -5.038977 2.000000 -0.433013
v -4.759380 2.000000 -0.847532
v -4.759380 2.500000 -0.847532
v -5.038977 3.000000 -0.433013
v -5.038977 2.500000 -0.433013
v -4.759380 2.500000 -0.847532
v -4.759380 3.000000 -0.847532
v -4.759380 0.500000 -0.847532
v -4.759380 -0.000000 -0.847531
v -4.444720 -0.000000 -1.236104
v -4.444720 0.500000 -1.236104
v -4.759380 1.000000 -0.847532
v -4.759380 0.500000 -0.847532
v -4.444720 0.500000 -1.236104
v -4.444720 1.000000 -1.236105
v -4.759380 1.500000 -0.847532
v -4.759380 1.000000 -0.847532
v -4.444720 1.000000 -1.236105
v -4.444720 1.500000 -1.236105
v -4.759380 2.000000 -0.847532
v -4.759380 1.500000 -0.847532
v -4.444720 1.500000 -1.236105
v -4.444720 2.000000 -1.236105
v -4.759380 2.500000 -0.847532
v -4.759380 2.000000 -0.847532
v -4.444720 2.000000 -1.236105
v -4.444720 2.500000 -1.236105
v -4.759380 3.000000 -0.847532
v -4.759380 2.500000 -0.847532
v -4.444720 2.500000 -1.236105
v -4.444720 3.000000 -1.236105
v -4.444720 0.500000 -1.236104
v -4.444720 -0.000000 -1.236104
v -4.097391 -0.000000 -1.595774
v -4.097391 0.500000 -1.595774
v -4.444720 1.000000 -1.236105
v -4.444720 0.500000 -1.236104
v -4.097391 0.500000 -1.595774
v -4.097391 1.000000 -1.595775
v -4.444720 1.500000 -1.236105
v -4.444720 1.000000 -1.236105
v -4.097391 1.000000 -1.595775
v -4.097391 1.500000 -1.595775
v -4.444720 2.000000 -1.236105
v -4.444720 1.500000 -1.236105
v -4.097391 1.500000 -1.595775
v -4.097391 2.000000 -1.595775
v -4.444720 2.500000 -1.236105
v -4.444720 2.000000 -1.236105
v -4.097391 2.000000 -1.595775
v -4.097391 2.500000 -1.595775
v -4.444720 3.000000 -1.236105
v -4.444720 2.500000 -1.236105
v -4.097391 2.500000 -1.595775
v -4.097391 3.000000 -1.595775
v -4.097391 0.500000 -1.595774
v -4.097391 -0.000000 -1.595774
v -3.720036 -0.000000 -1.923804
v -3.720036 0.500000 -1.923804
v -4.097391 1.000000 -1.595775
v -4.097391 0.500000 -1.595774
v -3.720036 0.500000 -1.923804
v -3.720036 1.000000 -1.923804
v -4.097391 1.500000 -1.595775
v -4.097391 1.000000 -1.595775
v -3.720036 1.000000 -1.923804
v -3.720036 1.500000 -1.923804
v -4.097391 2.000000 -1.595775
v -4.097391 1.500000 -1.595775
v -3.720036 1.500000 -1.923804
v -3.720036 2.000000 -1.923804
v -4.097391 2.500000 -1.595775
v -4.097391 2.000000 -1.595775
v -3.720036 2.000000 -1.923804
v -3.720036 2.500000 -1.923804
v -4.097391 3.000000 -1.595775
v -4.097391 2.500000 -1.595775
v -3.720036 2.500000 -1.923804
v -3.720036 3.000000 -1.923804
v -3.720036 0.500000 -1.923804
v -3.720036 -0.000000 -1.923804
v -3.315528 -0.000000 -2.217696
v -3.315528 0.500000 -2.217696
v -3.720036 1.000000 -1.923804
v -3.720036 0.500000 -1.923804
v -3.315528 0.500000 -2.217696
v -3.315528 1.000000 -2.217696
v -3.720036 1.500000 -1.923804
v -3.720036 1.000000 -1.923804
v -3.315528 1.000000 -2.217696
v -3.315528 1.500000 -2.217696
v -3.720036 2.000000 -1.923804
v -3.720036 1.500000 -1.923804
v -3.315528 1.500000 -2.217696
v -3.315528 2.000000 -2.217697
v -3.720036 2.500000 -1.923804
v -3.720036 2.000000 -1.923804
v -3.315528 2.000000 -2.217697
v -3.315528 2.500000 -2.217697
v -3.720036 3.000000 -1.923804
v -3.720036 2.500000 -1.923804
v -3.315528 2.500000 -2.217697
v -3.315528 3.000000 -2.217697
v -3.315528 0.500000 -2.217696
v -3.315528 -0.000000 -2.217696
v -2.891504 -0.000000 -2.482656
v -2.891504 0.500000 -2.482656
v -3.315528 1.000000 -2.217696
v -3.315528 0.500000 -2.217696
v -2.891504 0.500000 -2.482656
v -2.891504 1.000000 -2.482656
v -3.315528 1.500000 -2.217696
v -3.315528 1.000000 -2.217696
v -2.891504 1.000000 -2.482656
v -2.891504 1.500000 -2.482656
v -3.315528 2.000000 -2.217697
v -3.315528 1.500000 -2.217696
v -2.891504 1.500000 -2.482656
v -2.891504 2.000000 -2.482656
v -3.315528 2.500000 -2.217697
v -3.315528 2.000000 -2.217697
v -2.891504 2.000000 -2.482656
v -2.891504 2.500000 -2.482656
v -3.315528 3.000000 -2.217697
v -3.315528 2.500000 -2.217697
v -2.891504 2.500000 -2.482656
v -2.891504 3.000000 -2.482656
v -2.891504 0.500000 -2.482656
v -2.891504 -0.000000 -2.482656
v -2.446000 -0.000000 -2.709651
v -2.446000 0.500000 -2.709651
v -2.891504 1.000000 -2.482656
v -2.891504 0.500000 -2.482656
v -2.446000 0.500000 -2.709651
v -2.446000 1.000000 -2.709651
v -2.891504 1.500000 -2.482656
v -2.891504 1.000000 -2.482656
v -2.446000 1.000000 -2.709651
v -2.446000 1.500000 -2.709651
v -2.891504 2.000000 -2.482656
v -2.891504 1.500000 -2.482656
v -2.446000 1.500000 -2.709651
v -2.446000 2.000000 -2.709652
v -2.891504 2.500000 -2.482656
v -2.891504 2.000000 -2.482656
v -2.446000 2.000000 -2.709652
v -2.446000 2.500000 -2.709652
v -2.891504 3.000000 -2.482656
v -2.891504 2.500000 -2.482656
v -2.446000 2.500000 -2.709652
v -2.446000 3.000000 -2.709652
v -2.446000 0.500000 -2.709651
v -2.446000 -0.000000 -2.709651
v -1.982408 -0.000000 -2.896955
v -1.982408 0.500000 -2.896955
v -2.446000 1.000000 -2.709651
v -2.446000 0.500000 -2.709651
v -1.982408 0.500000 -2.896955
v -1.982408 1.000000 -2.896955
v -2.446000 1.500000 -2.709651
v -2.446000 1.000000 -2.709651
v -1.982408 1.000000 -2.896955
v -1.982408 1.500000 -2.896955
v -2.446000 2.000000 -2.709652
v -2.446000 1.500000 -2.709651
v -1.982408 1.500000 -2.896955
v -1.982408 2.000000 -2.896955
v -2.446000 2.500000 -2.709652
v -2.446000 2.000000 -2.709652
v -1.982408 2.000000 -2.896955
v -1.982408 2.500000 -2.896955
v -2.446000 3.000000 -2.709652
v -2.446000 2.500000 -2.709652
v -1.982408 2.500000 -2.896955
v -1.982408 3.000000 -2.896955
v -1.982408 0.500000 -2.896955
v -1.982408 -0.000000 -2.896955
v -1.504256 -0.000000 -3.043141
v -1.504256 0.500000 -3.043141
v -1.982408 1.000000 -2.896955
v -1.982408 0.500000 -2.896955
v -1.504256 0.500000 -3.043141
v -1.504256 1.000000 -3.043141
v -1.982408 1.500000 -2.896955
v -1.982408 1.000000 -2.896955
v -1.504256 1.000000 -3.043141
v -1.504256 1.500000 -3.043141
v -1.982408 2.000000 -2.896955
v -1.982408 1.500000 -2.896955
v -1.504256 1.500000 -3.043141
v -1.504256 2.000000 -3.043141
v -1.982408 2.500000 -2.896955
v -1.982408 2.000000 -2.896955
v -1.504256 2.000000 -3.043141
v -1.504256 2.500000 -3.043141
v -1.982408 3.000000 -2.896955
v -1.982408 2.500000 -2.896955
v -1.504256 2.500000 -3.043141
v -1.504256 3.000000 -3.043141
v -1.504256 0.500000 -3.043141
v -1.504256 -0.000000 -3.043141
v -1.015182 -0.000000 -3.147096
v -1.015182 0.500000 -3.147096
v -1.504256 1.000000 -3.043141
v -1.504256 0.500000 -3.043141
v -1.015182 0.500000 -3.147096
v -1.015182 1.000000 -3.147096
v -1.504256 1.500000 -3.043141
v -1.504256 1.000000 -3.043141
v -1.015182 1.000000 -3.147096
v -1.015182 1.500000 -3.147096
v -1.504256 2.000000 -3.043141
v -1.504256 1.500000 -3.043141
v -1.015182 1.500000 -3.147096
v -1.015182 2.000000 -3.147097
v -1.504256 2.500000 -3.043141
v -1.504256 2.000000 -3.043141
v -1.015182 2.000000 -3.147097
v -1.015182 2.500000 -3.147097
v -1.504256 3.000000 -3.043141
v -1.504256 2.500000 -3.043141
v -1.015182 2.500000 -3.147097
v -1.015182 3.000000 -3.147097
v -1.015182 0.500000 -3.147096
v -1.015182 -0.000000 -3.147096
v -0.520048 -0.000000 -3.216683
v -0.520048 0.500000 -3.216683
v -1.015182 1.000000 -3.147096
v -1.015182 0.500000 -3.147096
v -0.520048 0.500000 -3.216683
v -0.520048 1.000000 -3.216683
v -1.015182 1.500000 -3.147096
v -1.015182 1.000000 -3.147096
v -0.520048 1.000000 -3.216683
v -0.520048 1.500000 -3.216683
v -1.015182 2.000000 -3.147097
v -1.015182 1.500000 -3.147096
v -0.520048 1.500000 -3.216683
v -0.520048 2.000000 -3.216683
v -1.015182 2.500000 -3.147097
v -1.015182 2.000000 -3.147097
v -0.520048 2.000000 -3.216683
v -0.520048 2.500000 -3.216683
v -1.015182 3.000000 -3.147097
v -1.015182 2.500000 -3.147097
v -0.520048 2.500000 -3.216683
v -0.520048 3.000000 -3.216683
v -0.520048 0.500000 -3.216683
v -0.520048 -0.000000 -3.216683
v -0.020733 -0.000000 -3.242851
v -0.020733 0.500000 -3.242851
v -0.520048 1.000000 -3.216683
v -0.520048 0.500000 -3.216683
v -0.020733 0.500000 -3.242851
v -0.020733 1.000000 -3.242851
v -0.520048 1.500000 -3.216683
v -0.520048 1.000000 -3.216683
v -0.020733 1.000000 -3.242851
v -0.020733 1.500000 -3.242851
v -0.520048 2.000000 -3.216683
v -0.520048 1.500000 -3.216683
v -0.020733 1.500000 -3.242851
v -0.020733 2.000000 -3.242851
v -0.520048 2.500000 -3.216683
v -0.520048 2.000000 -3.216683
v -0.020733 2.000000 -3.242851
v -0.020733 2.500000 -3.242851
v -0.520048 3.000000 -3.216683
v -0.520048 2.500000 -3.216683
v -0.020733 2.500000 -3.242851
v -0.020733 3.000000 -3.242851
vt 0.000000 0.166667
vt 0.000000 0.000000
vt 0.076923 0.000000
vt 0.076923 0.166667
vt 0.000000 0.333333
vt 0.000000 0.166667
vt 0.076923 0.166667
vt 0.076923 0.333333
vt 0.000000 0.500000
vt 0.000000 0.333333
vt 0.076923 0.333333
vt 0.076923 0.500000
vt 0.000000 0.666667
vt 0.000000 0.500000
vt 0.076923 0.500000
vt 0.076923 0.666667
vt 0.000000 0.833333
vt 0.000000 0.666667
vt 0.076923 0.666667
vt 0.076923 0.833333
vt 0.000000 1.000000
vt 0.000000 0.833333
vt 0.076923 0.833333
vt 0.076923 1.000000
vt 0.076923 0.166667
vt 0.076923 0.000000
vt 0.153846 0.000000
vt 0.153846 0.166667
vt 0.076923 0.333333
vt 0.076923 0.166667
vt 0.153846 0.166667
vt 0.153846 0.333333
vt 0.076923 0.500000
vt 0.076923 0.333333
vt 0.153846 0.333333
vt 0.153846 0.500000
vt 0.076923 0.666667
vt 0.076923 0.500000
vt 0.153846 0.500000
vt 0.153846 0.666667
vt 0.076923 0.833333
vt 0.076923 0.666667
vt 0.153846 0.666667
vt 0.153846 0.833333
vt 0.076923 1.000000
vt 0.076923 0.833333
vt 0.153846 0.833333
vt 0.153846 1.000000
vt 0.153846 0.166667
vt 0.153846 0.000000
vt 0.230769 0.000000
vt 0.230769 0.166667
vt 0.153846 0.333333
vt 0.153846 0.166667
vt 0.230769 0.166667
vt 0.230769 0.333333
vt 0.153846 0.500000
vt 0.153846 0.333333
vt 0.230769 0.333333
vt 0.230769 0.500000
vt 0.153846 0.666667
vt 0.153846 0.500000
vt 0.230769 0.500000
vt 0.230769 0.666667
vt 0.153846 0.833333
vt 0.153846 0.666667
vt 0.230769 0.666667
vt 0.230769 0.833333
vt 0.153846 1.000000
vt 0.153846 0.833333
vt 0.230769 0.833333
vt 0.230769 1.000000
vt 0.230769 0.166667
vt 0.230769 0.000000
vt 0.307692 0.000000
vt 0.307692 0.166667
vt 0.230769 0.333333
vt 0.230769 0.166667
vt 0.307692 0.166667
vt 0.307692 0.333333
vt 0.230769 0.500000
vt 0.230769 0.333333
vt 0.307692 0.333333
vt 0.307692 0.500000
vt 0.230769 0.666667
vt 0.230769 0.500000
vt 0.307692 0.500000
vt 0.307692 0.666667
vt 0.230769 0.833333
vt 0.230769 0.666667
vt 0.307692 0.666667
vt 0.307692 0.833333
vt 0.230769 1.000000
vt 0.230769 0.833333
vt 0.307692 0.833333
vt 0.307692 1.000000
vt 0.307692 0.166667
vt 0.307692 0.000000
vt 0.384615 0.000000
vt 0.384615 0.166667
vt 0.307692 0.333333
vt 0.307692 0.166667
vt 0.384615 0.166667
vt 0.384615 0.333333
vt 0.307692 0.500000
vt 0.307692 0.333333
vt 0.384615 0.333333
vt 0.384615 0.500000
vt 0.307692 0.666667
vt 0.307692 0.500000
vt 0.384615 0.500000
vt 0.384615 0.666667
vt 0.307692 0.833333
vt 0.307692 0.666667
vt 0.384615 0.666667
vt 0.384615 0.833333
vt 0.307692 1.000000
vt 0.307692 0.833333
vt 0.384615 0.833333
vt 0.384615 1.000000
vt 0.384615 0.166667
vt 0.384615 0.000000
vt 0.461538 0.000000
vt 0.461538 0.166667
vt 0.384615 0.333333
vt 0.384615 0.166667
vt 0.461538 0.166667
vt 0.461538 0.333333
vt 0.384615 0.500000
vt 0.384615 0.333333
vt 0.461538 0.333333
vt 0.461538 0.500000
vt 0.384615 0.666667
vt 0.384615 0.500000
vt 0.461538 0.500000
vt 0.461538 0.666667
vt 0.384615 0.833333
vt 0.384615 0.666667
vt 0.461538 0.666667
vt 0.461538 0.833333
vt 0.384615 1.000000
vt 0.384615 0.833333
vt 0.461538 0.833333
vt 0.461538 1.000000
vt 0.461538 0.166667
vt 0.461538 0.000000
vt 0.538462 0.000000
vt 0.538462 0.166667
vt 0.461538 0.333333
vt 0.461538 0.166667
vt 0.538462 0.166667
vt 0.538462 0.333333
vt 0.461538 0.500000
vt 0.461538 0.333333
vt 0.538462 0.333333
vt 0.538462 0.500000
vt 0.461538 0.666667
vt 0.461538 0.500000
vt 0.538462 0.500000
vt 0.538462 0.666667
vt 0.461538 0.833333
vt 0.461538 0.666667
vt 0.538462 0.666667
vt 0.538462 0.833333
vt 0.461538 1.000000
vt 0.461538 0.833333
vt 0.538462 0.833333
vt 0.538462 1.000000
vt 0.538462 0.166667
vt 0.538462 0.000000
vt 0.615385 0.000000
vt 0.615385 0.166667
vt 0.538462 0.333333
vt 0.538462 0.166667
vt 0.615385 0.166667
vt 0.615385 0.333333
vt 0.538462 0.500000
vt 0.538462 0.333333
vt 0.615385 0.333333
vt 0.615385 0.500000
vt 0.538462 0.666667
vt 0.538462 0.500000
vt 0.615385 0.500000
vt 0.615385 0.666667
vt 0.538462 0.833333
vt 0.538462 0.666667
vt 0.615385 0.666667
vt 0.615385 0.833333
vt 0.538462 1.000000
vt 0.538462 0.833333
vt 0.615385 0.833333
vt 0.615385 1.000000
vt 0.615385 0.166667
vt 0.615385 0.000000
vt 0.692308 0.000000
vt 0.692308 0.166667
vt 0.615385 0.333333
vt 0.615385 0.166667
vt 0.692308 0.166667
vt 0.692308 0.333333
vt 0.615385 0.500000
vt 0.615385 0.333333
vt 0.692308 0.333333
vt 0.692308 0.500000
vt 0.615385 0.666667
vt 0.615385 0.500000
vt 0.692308 0.500000
vt 0.692308 0.666667
vt 0.615385 0.833333
vt 0.615385 0.666667
vt 0.692308 0.666667
vt 0.692308 0.833333
vt 0.615385 1.000000
vt 0.615385 0.833333
vt 0.692308 0.833333
vt 0.692308 1.000000
vt 0.692308 0.166667
vt 0.692308 0.000000
vt 0.769231 0.000000
vt 0.769231 0.166667
vt 0.692308 0.333333
vt 0.692308 0.166667
vt 0.769231 0.166667
vt 0.769231 0.333333
vt 0.692308 0.500000
vt 0.692308 0.333333
vt 0.769231 0.333333
vt 0.769231 0.500000
vt 0.692308 0.666667
vt 0.692308 0.500000
vt 0.769231 0.500000
vt 0.769231 0.666667
vt 0.692308 0.833333
vt 0.692308 0.666667
vt 0.769231 0.666667
vt 0.769231 0.833333
vt 0.692308 1.000000
vt 0.692308 0.833333
vt 0.769231 0.833333
vt 0.769231 1.000000
vt 0.769231 0.166667
vt 0.769231 0.000000
vt 0.846154 0.000000
vt 0.846154 0.166667
vt 0.769231 0.333333
vt 0.769231 0.166667
vt 0.846154 0.166667
vt 0.846154 0.333333
vt 0.769231 0.500000
vt 0.769231 0.333333
vt 0.846154 0.333333
vt 0.846154 0.500000
vt 0.769231 0.666667
vt 0.769231 0.500000
vt 0.846154 0.500000
vt 0.846154 0.666667
vt 0.769231 0.833333
vt 0.769231 0.666667
vt 0.846154 0.666667
vt 0.846154 0.833333
vt 0.769231 1.000000
vt 0.769231 0.833333
vt 0.846154 0.833333
vt 0.846154 1.000000
vt 0.846154 0.166667
vt 0.846154 0.000000
vt 0.923077 0.000000
vt 0.923077 0.166667
vt 0.846154 0.333333
vt 0.846154 0.166667
vt 0.923077 0.166667
vt 0.923077 0.333333
vt 0.846154 0.500000
vt 0.846154 0.333333
vt 0.923077 0.333333
vt 0.923077 0.500000
vt 0.846154 0.666667
vt 0.846154 0.500000
vt 0.923077 0.500000
vt 0.923077 0.666667
vt 0.846154 0.833333
vt 0.846154 0.666667
vt 0.923077 0.666667
vt 0.923077 0.833333
vt 0.846154 1.000000
vt 0.846154 0.833333
vt 0.923077 0.833333
vt 0.923077 1.000000
vt 0.923077 0.166667
vt 0.923077 0.000000
vt 1.000000 0.000000
vt 1.000000 0.166667
vt 0.923077 0.333333
vt 0.923077 0.166667
vt 1.000000 0.166667
vt 1.000000 0.333333
vt 0.923077 0.500000
vt 0.923077 0.333333
vt 1.000000 0.333333
vt 1.000000 0.500000
vt 0.923077 0.666667
vt 0.923077 0.500000
vt 1.000000 0.500000
vt 1.000000 0.666667
vt 0.923077 0.833333
vt 0.923077 0.666667
vt 1.000000 0.666667
vt 1.000000 0.833333
vt 0.923077 1.000000
vt 0.923077 0.833333
vt 1.000000 0.833333
vt 1.000000 1.000000
vn 0.8660 0.0000 0.5000
vn 0.8290 0.0000 0.5592
vn 0.7771 0.0000 0.6293
vn 0.7193 0.0000 0.6947
vn 0.6561 0.0000 0.7547
vn 0.5878 0.0000 0.8090
vn 0.5299 0.0000 0.8480
vn 0.4540 0.0000 0.8910
vn 0.3746 0.0000 0.9272
vn 0.2924 0.0000 0.9563
vn 0.2079 0.0000 0.9781
vn 0.1392 0.0000 0.9903
vn 0.0523 0.0000 0.9986
s off
f 1/1/1 2/2/1 3/3/1 4/4/1
f 5/5/1 6/6/1 7/7/1 8/8/1
f 9/9/1 10/10/1 11/11/1 12/12/1
f 13/13/1 14/14/1 15/15/1 16/16/1
f 17/17/1 18/18/1 19/19/1 20/20/1
f 21/21/1 22/22/1 23/23/1 24/24/1
f 25/25/2 26/26/2 27/27/2 28/28/2
f 29/29/2 30/30/2 31/31/2 32/32/2
f 33/33/2 34/34/2 35/35/2 36/36/2
f 37/37/2 38/38/2 39/39/2 40/40/2
f 41/41/2 42/42/2 43/43/2 44/44/2
f 45/45/2 46/46/2 47/47/2 48/48/2
f 49/49/3 50/50/3 51/51/3 52/52/3
f 53/53/3 54/54/3 55/55/3 56/56/3
f 57/57/3 58/58/3 59/59/3 60/60/3
f 61/61/3 62/62/3 63/63/3 64/64/3
f 65/65/3 66/66/3 67/67/3 68/68/3
f 69/69/3 70/70/3 71/71/3 72/72/3
f 73/73/4 74/74/4 75/75/4 76/76/4
f 77/77/4 78/78/4 79/79/4 80/80/4
f 81/81/4 82/82/4 83/83/4 84/84/4
f 85/85/4 86/86/4 87/87/4 88/88/4
f 89/89/4 90/90/4 91/91/4 92/92/4
f 93/93/4 94/94/4 95/95/4 96/96/4
f 97/97/5 98/98/5 99/99/5 100/100/5
f 101/101/5 102/102/5 103/103/5 104/104/5
f 105/105/5 106/106/5 107/107/5 108/108/5
f 109/109/5 110/110/5 111/111/5 112/112/5
f 113/113/5 114/114/5 115/115/5 116/116/5
f 117/117/5 118/118/5 119/119/5 120/120/5
f 121/121/6 122/122/6 123/123/6 124/124/6
f 125/125/6 126/126/6 127/127/6 128/128/6
f 129/129/6 130/130/6 131/131/6 132/132/6
f 133/133/6 134/134/6 135/135/6 136/136/6
f 137/137/6 138/138/6 139/139/6 140/140/6
f 141/141/6 142/142/6 143/143/6 144/144/6
f 145/145/7 146/146/7 147/147/7 148/148/7
f 149/149/7 150/150/7 151/151/7 152/152/7
f 153/153/7 154/154/7 155/155/7 156/156/7
f 157/157/7 158/158/7 159/159/7 160/160/7
f 161/161/7 162/162/7 163/163/7 164/164/7
f 165/165/7 166/166/7 167/167/7 168/168/7
f 169/169/8 170/170/8 171/171/8 172/172/8
f 173/173/8 174/174/8 175/175/8 176/176/8
f 177/177/8 178/178/8 179/179/8 180/180/8
f 181/181/8 182/182/8 183/183/8 184/184/8
f 185/185/8 186/186/8 187/187/8 188/188/8
f 189/189/8 190/190/8 191/191/8 192/192/8
f 193/193/9 194/194/9 195/195/9 196/196/9
f 197/197/9 198/198/9 199/199/9 200/200/9
f 201/201/9 202/202/9 203/203/9 204/204/9
f 205/205/9 206/206/9 207/207/9 208/208/9
f 209/209/9 210/210/9 211/211/9 212/212/9
f 213/213/9 214/214/9 215/215/9 216/216/9
f 217/217/10 218/218/10 219/219/10 220/220/10
f 221/221/10 222/222/10 223/223/10 224/224/10
f 225/225/10 226/226/10 227/227/10 228/228/10
f 229/229/10 230/230/10 231/231/10 232/232/10
f 233/233/10 234/234/10 235/235/10 236/236/10
f 237/237/10 238/238/10 239/239/10 240/240/10
f 241/241/11 242/242/11 243/243/11 244/244/11
f 245/245/11 246/246/11 247/247/11 248/248/11
f 249/249/11 250/250/11 251/251/11 252/252/11
f 253/253/11 254/254/11 255/255/11 256/256/11
f 257/257/11 258/258/11 259/259/11 260/260/11
f 261/261/11 262/262/11 263/263/11 264/264/11
f 265/265/12 266/266/12 267/267/12 268/268/12
f 269/269/12 270/270/12 271/271/12 272/272/12
f 273/273/12 274/274/12 275/275/12 276/276/12
f 277/277/12 278/278/12 279/279/12 280/280/12
f 281/281/12 282/282/12 283/283/12 284/284/12
f 285/285/12 286/286/12 287/287/12 288/288/12
f 289/289/13 290/290/13 291/291/13 292/292/13
f 293/293/13 294/294/13 295/295/13 296/296/13
f 297/297/13 298/298/13 299/299/13 300/300/13
f 301/301/13 302/302/13 303/303/13 304/304/13
f 305/305/13 306/306/13 307/307/13 308/308/13
f 309/309/13 310/310/13 311/311/13 312/312/13
