# Blender 3.6.7
# www.blender.org
mtllib Screen_1.mtl
o stage1_1_feed
v -8.616170 0.155000 -3.200296
v -8.424829 0.155000 -3.662235
v -8.424829 0.654872 -3.662235
v -8.616170 0.654872 -3.200296
v -8.783073 0.155000 -2.728975
v -8.783073 0.654871 -2.728975
v -8.925081 0.155000 -2.249565
v -8.925081 0.654871 -2.249566
v -9.041803 0.155000 -1.763382
v -9.041803 0.654871 -1.763381
v -9.132920 0.155000 -1.271755
v -9.132920 0.654871 -1.271755
v -9.198183 0.155000 -0.776033
v -9.198183 0.654871 -0.776033
v -9.237413 0.155000 -0.277574
v -9.237413 0.654871 -0.277574
v -9.250501 0.155000 0.222255
v -9.250502 0.654871 0.222255
v -9.237412 0.155000 0.722084
v -9.237412 0.654871 0.722084
v -9.198184 0.155000 1.220543
v -9.198184 0.654871 1.220544
v -9.132920 0.154999 1.716267
v -9.132921 0.654871 1.716267
v -9.041803 0.154999 2.207894
v -9.041803 0.654871 2.207894
v -8.925080 0.154999 2.694079
v -8.925080 0.654871 2.694079
v -8.791461 0.154999 3.175894
v -8.791461 0.654871 3.175894
v -8.632809 0.154999 3.650054
v -8.632809 0.654871 3.650053
v -8.449558 0.154999 4.115259
v -8.449558 0.654871 4.115259
v -8.246190 0.154999 4.572032
v -8.246190 0.654871 4.572032
v -8.023091 0.154999 5.019498
v -8.023091 0.654871 5.019498
v -7.780686 0.154999 5.456807
v -7.780686 0.654871 5.456807
v -7.519437 0.154999 5.883128
v -7.519437 0.654870 5.883128
v -8.424829 1.154743 -3.662235
v -8.616170 1.154743 -3.200296
v -8.783073 1.154743 -2.728975
v -8.925081 1.154743 -2.249566
v -9.041803 1.154743 -1.763381
v -9.132920 1.154743 -1.271754
v -9.198183 1.154743 -0.776033
v -9.237413 1.154743 -0.277574
v -9.250502 1.154743 0.222255
v -9.237412 1.154743 0.722084
v -9.198184 1.154743 1.220544
v -9.132921 1.154743 1.716267
v -9.041803 1.154742 2.207894
v -8.925080 1.154742 2.694079
v -8.791461 1.154742 3.175894
v -8.632809 1.154742 3.650054
v -8.449558 1.154742 4.115259
v -8.246190 1.154742 4.572032
v -8.023091 1.154742 5.019498
v -7.780686 1.154742 5.456807
v -7.519437 1.154742 5.883128
v -8.424829 1.654615 -3.662235
v -8.616170 1.654615 -3.200296
v -8.783073 1.654615 -2.728975
v -8.925081 1.654615 -2.249566
v -9.041803 1.654614 -1.763381
v -9.132920 1.654614 -1.271755
v -9.198183 1.654614 -0.776033
v -9.237413 1.654614 -0.277574
v -9.250501 1.654614 0.222255
v -9.237412 1.654614 0.722084
v -9.198184 1.654614 1.220544
v -9.132920 1.654614 1.716267
v -9.041803 1.654614 2.207894
v -8.925080 1.654614 2.694079
v -8.791461 1.654614 3.175894
v -8.632809 1.654614 3.650054
v -8.449558 1.654613 4.115260
v -8.246190 1.654613 4.572032
v -8.023091 1.654613 5.019498
v -7.780686 1.654613 5.456808
v -7.519437 1.654613 5.883129
v -8.424829 2.154486 -3.662235
v -8.616170 2.154486 -3.200296
v -8.783073 2.154486 -2.728975
v -8.925081 2.154486 -2.249566
v -9.041803 2.154486 -1.763381
v -9.132920 2.154486 -1.271755
v -9.198183 2.154486 -0.776033
v -9.237413 2.154485 -0.277574
v -9.250501 2.154485 0.222255
v -9.237412 2.154485 0.722084
v -9.198184 2.154485 1.220544
v -9.132921 2.154485 1.716267
v -9.041803 2.154485 2.207894
v -8.925080 2.154485 2.694079
v -8.791461 2.154485 3.175894
v -8.632809 2.154485 3.650053
v -8.449558 2.154485 4.115260
v -8.246190 2.154485 4.572032
v -8.023091 2.154485 5.019498
v -7.780686 2.154485 5.456808
v -7.519437 2.154485 5.883129
v -8.424829 2.654358 -3.662235
v -8.616170 2.654358 -3.200296
v -8.783073 2.654358 -2.728975
v -8.925081 2.654358 -2.249566
v -9.041803 2.654357 -1.763381
v -9.132920 2.654357 -1.271754
v -9.198183 2.654357 -0.776032
v -9.237413 2.654357 -0.277573
v -9.250501 2.654357 0.222255
v -9.237412 2.654357 0.722084
v -9.198184 2.654357 1.220544
v -9.132921 2.654357 1.716267
v -9.041803 2.654357 2.207894
v -8.925080 2.654357 2.694080
v -8.791461 2.654357 3.175895
v -8.632809 2.654357 3.650054
v -8.449558 2.654356 4.115260
v -8.246190 2.654356 4.572032
v -8.023091 2.654356 5.019498
v -7.780686 2.654356 5.456808
v -7.519437 2.654356 5.883129
v -8.424829 3.154229 -3.662235
v -8.616170 3.154229 -3.200296
v -8.783073 3.154229 -2.728975
v -8.925081 3.154229 -2.249566
v -9.041803 3.154229 -1.763381
v -9.132920 3.154229 -1.271754
v -9.198183 3.154229 -0.776032
v -9.237413 3.154228 -0.277573
v -9.250501 3.154228 0.222255
v -9.237412 3.154228 0.722084
v -9.198184 3.154228 1.220544
v -9.132920 3.154228 1.716267
v -9.041803 3.154228 2.207894
v -8.925080 3.154228 2.694080
v -8.791461 3.154228 3.175895
v -8.632809 3.154228 3.650054
v -8.449558 3.154228 4.115260
v -8.246190 3.154228 4.572032
v -8.023091 3.154228 5.019498
v -7.780686 3.154228 5.456808
v -7.519437 3.154228 5.883129
v -8.424829 3.654100 -3.662235
v -8.616170 3.654100 -3.200296
v -8.783073 3.654100 -2.728975
v -8.925081 3.654100 -2.249566
v -9.041803 3.654100 -1.763381
v -9.132920 3.654100 -1.271754
v -9.198183 3.654100 -0.776032
v -9.237413 3.654100 -0.277573
v -9.250502 3.654100 0.222255
v -9.237412 3.654100 0.722084
v -9.198184 3.654100 1.220544
v -9.132920 3.654100 1.716267
v -9.041803 3.654100 2.207894
v -8.925080 3.654099 2.694079
v -8.791461 3.654100 3.175895
v -8.632809 3.654099 3.650054
v -8.449558 3.654099 4.115260
v -8.246190 3.654099 4.572031
v -8.023091 3.654099 5.019497
v -7.780686 3.654099 5.456808
v -7.519437 3.654099 5.883129
v -8.424829 4.153972 -3.662235
v -8.616170 4.153972 -3.200296
v -8.783073 4.153972 -2.728975
v -8.925081 4.153972 -2.249565
v -9.041803 4.153972 -1.763381
v -9.132920 4.153972 -1.271754
v -9.198183 4.153972 -0.776032
v -9.237413 4.153972 -0.277573
v -9.250501 4.153972 0.222255
v -9.237412 4.153972 0.722084
v -9.198184 4.153972 1.220544
v -9.132920 4.153971 1.716267
v -9.041803 4.153971 2.207894
v -8.925080 4.153971 2.694080
v -8.791461 4.153972 3.175895
v -8.632809 4.153972 3.650054
v -8.449558 4.153972 4.115260
v -8.246190 4.153970 4.572031
v -8.023091 4.153970 5.019497
v -7.780686 4.153970 5.456809
v -7.519437 4.153970 5.883129
v -8.424829 4.653842 -3.662235
v -8.616170 4.653842 -3.200296
v -8.783073 4.653844 -2.728975
v -8.925081 4.653844 -2.249565
v -9.041803 4.653844 -1.763381
v -9.132920 4.653843 -1.271754
v -9.198183 4.653843 -0.776032
v -9.237413 4.653843 -0.277573
v -9.250501 4.653843 0.222255
v -9.237412 4.653843 0.722084
v -9.198184 4.653843 1.220544
v -9.132920 4.653843 1.716267
v -9.041803 4.653843 2.207894
v -8.925080 4.653843 2.694080
v -8.791461 4.653843 3.175895
v -8.632809 4.653843 3.650054
v -8.449558 4.653842 4.115260
v -8.246190 4.653841 4.572031
v -8.023091 4.653841 5.019497
v -7.780686 4.653841 5.456808
v -7.519437 4.653841 5.883129
v -8.424829 5.153715 -3.662235
v -8.616170 5.153715 -3.200296
v -8.783073 5.153715 -2.728975
v -8.925081 5.153715 -2.249565
v -9.041803 5.153715 -1.763381
v -9.132920 5.153715 -1.271754
v -9.198183 5.153715 -0.776032
v -9.237413 5.153714 -0.277573
v -9.250502 5.153715 0.222256
v -9.237412 5.153715 0.722084
v -9.198184 5.153715 1.220544
v -9.132921 5.153714 1.716267
v -9.041803 5.153714 2.207895
v -8.925080 5.153714 2.694080
v -8.791461 5.153715 3.175894
v -8.632809 5.153715 3.650054
v -8.449558 5.153715 4.115260
v -8.246190 5.153714 4.572031
v -8.023091 5.153714 5.019497
v -7.780686 5.153714 5.456808
v -7.519437 5.153714 5.883129
v -8.424829 5.653585 -3.662235
v -8.616170 5.653585 -3.200296
v -8.783073 5.653586 -2.728975
v -8.925081 5.653586 -2.249565
v -9.041803 5.653586 -1.763381
v -9.132920 5.653586 -1.271755
v -9.198183 5.653586 -0.776032
v -9.237413 5.653586 -0.277573
v -9.250501 5.653586 0.222256
v -9.237412 5.653586 0.722084
v -9.198184 5.653586 1.220543
v -9.132920 5.653585 1.716267
v -9.041803 5.653585 2.207895
v -8.925080 5.653585 2.694080
v -8.791461 5.653585 3.175894
v -8.632809 5.653585 3.650054
v -8.449558 5.653585 4.115260
v -8.246190 5.653584 4.572031
v -8.023091 5.653584 5.019497
v -7.780686 5.653584 5.456808
v -7.519437 5.653584 5.883129
vn 0.9336 -0.0000 0.3584
vn 0.9135 -0.0000 0.4067
vn 0.9511 -0.0000 0.3090
vn 0.9659 -0.0000 0.2588
vn 0.9781 -0.0000 0.2079
vn 0.9877 -0.0000 0.1564
vn 0.9945 -0.0000 0.1045
vn 0.9986 -0.0000 0.0523
vn 1.0000 -0.0000 -0.0000
vn 0.9986 -0.0000 -0.0523
vn 0.9945 -0.0000 -0.1045
vn 0.9877 -0.0000 -0.1564
vn 0.9781 -0.0000 -0.2079
vn 0.9681 -0.0000 -0.2504
vn 0.9563 -0.0000 -0.2924
vn 0.9397 -0.0000 -0.3420
vn 0.9222 -0.0000 -0.3867
vn 0.9045 -0.0000 -0.4266
vn 0.8850 -0.0000 -0.4656
vn 0.8638 -0.0000 -0.5038
vn 0.8526 -0.0000 -0.5225
vt 0.950000 0.000000
vt 1.000000 0.000000
vt 1.000000 0.090909
vt 0.950000 0.090909
vt 0.900000 0.000000
vt 0.900000 0.090909
vt 0.850000 0.000000
vt 0.850000 0.090909
vt 0.800000 0.000000
vt 0.800000 0.090909
vt 0.750000 0.000000
vt 0.750000 0.090909
vt 0.700000 0.000000
vt 0.700000 0.090909
vt 0.650000 0.000000
vt 0.650000 0.090909
vt 0.600000 0.000000
vt 0.600000 0.090909
vt 0.550000 0.000000
vt 0.550000 0.090909
vt 0.500000 0.000000
vt 0.500000 0.090909
vt 0.450000 0.000000
vt 0.450000 0.090909
vt 0.400000 0.000000
vt 0.400000 0.090909
vt 0.350000 0.000000
vt 0.350000 0.090909
vt 0.300000 0.000000
vt 0.300000 0.090909
vt 0.250000 0.000000
vt 0.250000 0.090909
vt 0.200000 0.000000
vt 0.200000 0.090909
vt 0.150000 0.000000
vt 0.150000 0.090909
vt 0.100000 0.000000
vt 0.100000 0.090909
vt 0.050000 0.000000
vt 0.050000 0.090909
vt 0.000000 0.000000
vt 0.000000 0.090909
vt 1.000000 0.181818
vt 0.950000 0.181818
vt 0.900000 0.181818
vt 0.850000 0.181818
vt 0.800000 0.181818
vt 0.750000 0.181818
vt 0.700000 0.181818
vt 0.650000 0.181818
vt 0.600000 0.181818
vt 0.550000 0.181818
vt 0.500000 0.181818
vt 0.450000 0.181818
vt 0.400000 0.181818
vt 0.350000 0.181818
vt 0.300000 0.181818
vt 0.250000 0.181818
vt 0.200000 0.181818
vt 0.150000 0.181818
vt 0.100000 0.181818
vt 0.050000 0.181818
vt 0.000000 0.181818
vt 1.000000 0.272727
vt 0.950000 0.272727
vt 0.900000 0.272727
vt 0.850000 0.272727
vt 0.800000 0.272727
vt 0.750000 0.272727
vt 0.700000 0.272727
vt 0.650000 0.272727
vt 0.600000 0.272727
vt 0.550000 0.272727
vt 0.500000 0.272727
vt 0.450000 0.272727
vt 0.400000 0.272727
vt 0.350000 0.272727
vt 0.300000 0.272727
vt 0.250000 0.272727
vt 0.200000 0.272727
vt 0.150000 0.272727
vt 0.100000 0.272727
vt 0.050000 0.272727
vt 0.000000 0.272727
vt 1.000000 0.363636
vt 0.950000 0.363636
vt 0.900000 0.363636
vt 0.850000 0.363636
vt 0.800000 0.363636
vt 0.750000 0.363636
vt 0.700000 0.363636
vt 0.650000 0.363636
vt 0.600000 0.363636
vt 0.550000 0.363636
vt 0.500000 0.363636
vt 0.450000 0.363636
vt 0.400000 0.363636
vt 0.350000 0.363636
vt 0.300000 0.363636
vt 0.250000 0.363636
vt 0.200000 0.363636
vt 0.150000 0.363636
vt 0.100000 0.363636
vt 0.050000 0.363636
vt 0.000000 0.363636
vt 1.000000 0.454545
vt 0.950000 0.454545
vt 0.900000 0.454545
vt 0.850000 0.454545
vt 0.800000 0.454545
vt 0.750000 0.454545
vt 0.700000 0.454545
vt 0.650000 0.454545
vt 0.600000 0.454545
vt 0.550000 0.454545
vt 0.500000 0.454545
vt 0.450000 0.454545
vt 0.400000 0.454545
vt 0.350000 0.454545
vt 0.300000 0.454545
vt 0.250000 0.454545
vt 0.200000 0.454545
vt 0.150000 0.454545
vt 0.100000 0.454545
vt 0.050000 0.454545
vt 0.000000 0.454545
vt 1.000000 0.545454
vt 0.950000 0.545454
vt 0.900000 0.545454
vt 0.850000 0.545454
vt 0.800000 0.545454
vt 0.750000 0.545454
vt 0.700000 0.545454
vt 0.650000 0.545454
vt 0.600000 0.545454
vt 0.550000 0.545454
vt 0.500000 0.545454
vt 0.450000 0.545454
vt 0.400000 0.545454
vt 0.350000 0.545454
vt 0.300000 0.545454
vt 0.250000 0.545454
vt 0.200000 0.545454
vt 0.150000 0.545454
vt 0.100000 0.545454
vt 0.050000 0.545454
vt 0.000000 0.545454
vt 1.000000 0.636363
vt 0.950000 0.636363
vt 0.900000 0.636363
vt 0.850000 0.636363
vt 0.800000 0.636363
vt 0.750000 0.636363
vt 0.700000 0.636363
vt 0.650000 0.636363
vt 0.600000 0.636363
vt 0.550000 0.636363
vt 0.500000 0.636363
vt 0.450000 0.636363
vt 0.400000 0.636363
vt 0.350000 0.636363
vt 0.300000 0.636363
vt 0.250000 0.636363
vt 0.200000 0.636363
vt 0.150000 0.636363
vt 0.100000 0.636363
vt 0.050000 0.636363
vt 0.000000 0.636363
vt 1.000000 0.727272
vt 0.950000 0.727272
vt 0.900000 0.727272
vt 0.850000 0.727272
vt 0.800000 0.727272
vt 0.750000 0.727272
vt 0.700000 0.727272
vt 0.650000 0.727272
vt 0.600000 0.727272
vt 0.550000 0.727272
vt 0.500000 0.727272
vt 0.450000 0.727272
vt 0.400000 0.727272
vt 0.350000 0.727272
vt 0.300000 0.727272
vt 0.250000 0.727272
vt 0.200000 0.727272
vt 0.150000 0.727272
vt 0.100000 0.727272
vt 0.050000 0.727272
vt 0.000000 0.727272
vt 1.000000 0.818181
vt 0.950000 0.818181
vt 0.900000 0.818181
vt 0.850000 0.818181
vt 0.800000 0.818181
vt 0.750000 0.818181
vt 0.700000 0.818181
vt 0.650000 0.818181
vt 0.600000 0.818181
vt 0.550000 0.818181
vt 0.500000 0.818181
vt 0.450000 0.818181
vt 0.400000 0.818181
vt 0.350000 0.818181
vt 0.300000 0.818181
vt 0.250000 0.818181
vt 0.200000 0.818181
vt 0.150000 0.818181
vt 0.100000 0.818181
vt 0.050000 0.818181
vt 0.000000 0.818181
vt 1.000000 0.909090
vt 0.950000 0.909090
vt 0.900000 0.909090
vt 0.850000 0.909090
vt 0.800000 0.909090
vt 0.750000 0.909090
vt 0.700000 0.909090
vt 0.650000 0.909090
vt 0.600000 0.909090
vt 0.550000 0.909090
vt 0.500000 0.909090
vt 0.450000 0.909090
vt 0.400000 0.909090
vt 0.350000 0.909090
vt 0.300000 0.909090
vt 0.250000 0.909090
vt 0.200000 0.909090
vt 0.150000 0.909090
vt 0.100000 0.909090
vt 0.050000 0.909090
vt 0.000000 0.909090
vt 1.000000 0.999999
vt 0.950000 0.999999
vt 0.900000 0.999999
vt 0.850000 0.999999
vt 0.800000 0.999999
vt 0.750000 0.999999
vt 0.700000 0.999999
vt 0.650000 0.999999
vt 0.600000 0.999999
vt 0.550000 0.999999
vt 0.500000 0.999999
vt 0.450000 0.999999
vt 0.400000 0.999999
vt 0.350000 0.999999
vt 0.300000 0.999999
vt 0.250000 0.999999
vt 0.200000 0.999999
vt 0.150000 0.999999
vt 0.100000 0.999999
vt 0.050000 0.999999
vt 0.000000 0.999999
s 1
usemtl screen
f 1/1/1 2/2/2 3/3/2 4/4/1
f 5/5/3 1/1/1 4/4/1 6/6/3
f 7/7/4 5/5/3 6/6/3 8/8/4
f 9/9/5 7/7/4 8/8/4 10/10/5
f 11/11/6 9/9/5 10/10/5 12/12/6
f 13/13/7 11/11/6 12/12/6 14/14/7
f 15/15/8 13/13/7 14/14/7 16/16/8
f 17/17/9 15/15/8 16/16/8 18/18/9
f 19/19/10 17/17/9 18/18/9 20/20/10
f 21/21/11 19/19/10 20/20/10 22/22/11
f 23/23/12 21/21/11 22/22/11 24/24/12
f 25/25/13 23/23/12 24/24/12 26/26/13
f 27/27/14 25/25/13 26/26/13 28/28/14
f 29/29/15 27/27/14 28/28/14 30/30/15
f 31/31/16 29/29/15 30/30/15 32/32/16
f 33/33/17 31/31/16 32/32/16 34/34/17
f 35/35/18 33/33/17 34/34/17 36/36/18
f 37/37/19 35/35/18 36/36/18 38/38/19
f 39/39/20 37/37/19 38/38/19 40/40/20
f 41/41/21 39/39/20 40/40/20 42/42/21
f 4/4/1 3/3/2 43/43/2 44/44/1
f 6/6/3 4/4/1 44/44/1 45/45/3
f 8/8/4 6/6/3 45/45/3 46/46/4
f 10/10/5 8/8/4 46/46/4 47/47/5
f 12/12/6 10/10/5 47/47/5 48/48/6
f 14/14/7 12/12/6 48/48/6 49/49/7
f 16/16/8 14/14/7 49/49/7 50/50/8
f 18/18/9 16/16/8 50/50/8 51/51/9
f 20/20/10 18/18/9 51/51/9 52/52/10
f 22/22/11 20/20/10 52/52/10 53/53/11
f 24/24/12 22/22/11 53/53/11 54/54/12
f 26/26/13 24/24/12 54/54/12 55/55/13
f 28/28/14 26/26/13 55/55/13 56/56/14
f 30/30/15 28/28/14 56/56/14 57/57/15
f 32/32/16 30/30/15 57/57/15 58/58/16
f 34/34/17 32/32/16 58/58/16 59/59/17
f 36/36/18 34/34/17 59/59/17 60/60/18
f 38/38/19 36/36/18 60/60/18 61/61/19
f 40/40/20 38/38/19 61/61/19 62/62/20
f 42/42/21 40/40/20 62/62/20 63/63/21
f 44/44/1 43/43/2 64/64/2 65/65/1
f 45/45/3 44/44/1 65/65/1 66/66/3
f 46/46/4 45/45/3 66/66/3 67/67/4
f 47/47/5 46/46/4 67/67/4 68/68/5
f 48/48/6 47/47/5 68/68/5 69/69/6
f 49/49/7 48/48/6 69/69/6 70/70/7
f 50/50/8 49/49/7 70/70/7 71/71/8
f 51/51/9 50/50/8 71/71/8 72/72/9
f 52/52/10 51/51/9 72/72/9 73/73/10
f 53/53/11 52/52/10 73/73/10 74/74/11
f 54/54/12 53/53/11 74/74/11 75/75/12
f 55/55/13 54/54/12 75/75/12 76/76/13
f 56/56/14 55/55/13 76/76/13 77/77/14
f 57/57/15 56/56/14 77/77/14 78/78/15
f 58/58/16 57/57/15 78/78/15 79/79/16
f 59/59/17 58/58/16 79/79/16 80/80/17
f 60/60/18 59/59/17 80/80/17 81/81/18
f 61/61/19 60/60/18 81/81/18 82/82/19
f 62/62/20 61/61/19 82/82/19 83/83/20
f 63/63/21 62/62/20 83/83/20 84/84/21
f 65/65/1 64/64/2 85/85/2 86/86/1
f 66/66/3 65/65/1 86/86/1 87/87/3
f 67/67/4 66/66/3 87/87/3 88/88/4
f 68/68/5 67/67/4 88/88/4 89/89/5
f 69/69/6 68/68/5 89/89/5 90/90/6
f 70/70/7 69/69/6 90/90/6 91/91/7
f 71/71/8 70/70/7 91/91/7 92/92/8
f 72/72/9 71/71/8 92/92/8 93/93/9
f 73/73/10 72/72/9 93/93/9 94/94/10
f 74/74/11 73/73/10 94/94/10 95/95/11
f 75/75/12 74/74/11 95/95/11 96/96/12
f 76/76/13 75/75/12 96/96/12 97/97/13
f 77/77/14 76/76/13 97/97/13 98/98/14
f 78/78/15 77/77/14 98/98/14 99/99/15
f 79/79/16 78/78/15 99/99/15 100/100/16
f 80/80/17 79/79/16 100/100/16 101/101/17
f 81/81/18 80/80/17 101/101/17 102/102/18
f 82/82/19 81/81/18 102/102/18 103/103/19
f 83/83/20 82/82/19 103/103/19 104/104/20
f 84/84/21 83/83/20 104/104/20 105/105/21
f 86/86/1 85/85/2 106/106/2 107/107/1
f 87/87/3 86/86/1 107/107/1 108/108/3
f 88/88/4 87/87/3 108/108/3 109/109/4
f 89/89/5 88/88/4 109/109/4 110/110/5
f 90/90/6 89/89/5 110/110/5 111/111/6
f 91/91/7 90/90/6 111/111/6 112/112/7
f 92/92/8 91/91/7 112/112/7 113/113/8
f 93/93/9 92/92/8 113/113/8 114/114/9
f 94/94/10 93/93/9 114/114/9 115/115/10
f 95/95/11 94/94/10 115/115/10 116/116/11
f 96/96/12 95/95/11 116/116/11 117/117/12
f 97/97/13 96/96/12 117/117/12 118/118/13
f 98/98/14 97/97/13 118/118/13 119/119/14
f 99/99/15 98/98/14 119/119/14 120/120/15
f 100/100/16 99/99/15 120/120/15 121/121/16
f 101/101/17 100/100/16 121/121/16 122/122/17
f 102/102/18 101/101/17 122/122/17 123/123/18
f 103/103/19 102/102/18 123/123/18 124/124/19
f 104/104/20 103/103/19 124/124/19 125/125/20
f 105/105/21 104/104/20 125/125/20 126/126/21
f 107/107/1 106/106/2 127/127/2 128/128/1
f 108/108/3 107/107/1 128/128/1 129/129/3
f 109/109/4 108/108/3 129/129/3 130/130/4
f 110/110/5 109/109/4 130/130/4 131/131/5
f 111/111/6 110/110/5 131/131/5 132/132/6
f 112/112/7 111/111/6 132/132/6 133/133/7
f 113/113/8 112/112/7 133/133/7 134/134/8
f 114/114/9 113/113/8 134/134/8 135/135/9
f 115/115/10 114/114/9 135/135/9 136/136/10
f 116/116/11 115/115/10 136/136/10 137/137/11
f 117/117/12 116/116/11 137/137/11 138/138/12
f 118/118/13 117/117/12 138/138/12 139/139/13
f 119/119/14 118/118/13 139/139/13 140/140/14
f 120/120/15 119/119/14 140/140/14 141/141/15
f 121/121/16 120/120/15 141/141/15 142/142/16
f 122/122/17 121/121/16 142/142/16 143/143/17
f 123/123/18 122/122/17 143/143/17 144/144/18
f 124/124/19 123/123/18 144/144/18 145/145/19
f 125/125/20 124/124/19 145/145/19 146/146/20
f 126/126/21 125/125/20 146/146/20 147/147/21
f 128/128/1 127/127/2 148/148/2 149/149/1
f 129/129/3 128/128/1 149/149/1 150/150/3
f 130/130/4 129/129/3 150/150/3 151/151/4
f 131/131/5 130/130/4 151/151/4 152/152/5
f 132/132/6 131/131/5 152/152/5 153/153/6
f 133/133/7 132/132/6 153/153/6 154/154/7
f 134/134/8 133/133/7 154/154/7 155/155/8
f 135/135/9 134/134/8 155/155/8 156/156/9
f 136/136/10 135/135/9 156/156/9 157/157/10
f 137/137/11 136/136/10 157/157/10 158/158/11
f 138/138/12 137/137/11 158/158/11 159/159/12
f 139/139/13 138/138/12 159/159/12 160/160/13
f 140/140/14 139/139/13 160/160/13 161/161/14
f 141/141/15 140/140/14 161/161/14 162/162/15
f 142/142/16 141/141/15 162/162/15 163/163/16
f 143/143/17 142/142/16 163/163/16 164/164/17
f 144/144/18 143/143/17 164/164/17 165/165/18
f 145/145/19 144/144/18 165/165/18 166/166/19
f 146/146/20 145/145/19 166/166/19 167/167/20
f 147/147/21 146/146/20 167/167/20 168/168/21
f 149/149/1 148/148/2 169/169/2 170/170/1
f 150/150/3 149/149/1 170/170/1 171/171/3
f 151/151/4 150/150/3 171/171/3 172/172/4
f 152/152/5 151/151/4 172/172/4 173/173/5
f 153/153/6 152/152/5 173/173/5 174/174/6
f 154/154/7 153/153/6 174/174/6 175/175/7
f 155/155/8 154/154/7 175/175/7 176/176/8
f 156/156/9 155/155/8 176/176/8 177/177/9
f 157/157/10 156/156/9 177/177/9 178/178/10
f 158/158/11 157/157/10 178/178/10 179/179/11
f 159/159/12 158/158/11 179/179/11 180/180/12
f 160/160/13 159/159/12 180/180/12 181/181/13
f 161/161/14 160/160/13 181/181/13 182/182/14
f 162/162/15 161/161/14 182/182/14 183/183/15
f 163/163/16 162/162/15 183/183/15 184/184/16
f 164/164/17 163/163/16 184/184/16 185/185/17
f 165/165/18 164/164/17 185/185/17 186/186/18
f 166/166/19 165/165/18 186/186/18 187/187/19
f 167/167/20 166/166/19 187/187/19 188/188/20
f 168/168/21 167/167/20 188/188/20 189/189/21
f 170/170/1 169/169/2 190/190/2 191/191/1
f 171/171/3 170/170/1 191/191/1 192/192/3
f 172/172/4 171/171/3 192/192/3 193/193/4
f 173/173/5 172/172/4 193/193/4 194/194/5
f 174/174/6 173/173/5 194/194/5 195/195/6
f 175/175/7 174/174/6 195/195/6 196/196/7
f 176/176/8 175/175/7 196/196/7 197/197/8
f 177/177/9 176/176/8 197/197/8 198/198/9
f 178/178/10 177/177/9 198/198/9 199/199/10
f 179/179/11 178/178/10 199/199/10 200/200/11
f 180/180/12 179/179/11 200/200/11 201/201/12
f 181/181/13 180/180/12 201/201/12 202/202/13
f 182/182/14 181/181/13 202/202/13 203/203/14
f 183/183/15 182/182/14 203/203/14 204/204/15
f 184/184/16 183/183/15 204/204/15 205/205/16
f 185/185/17 184/184/16 205/205/16 206/206/17
f 186/186/18 185/185/17 206/206/17 207/207/18
f 187/187/19 186/186/18 207/207/18 208/208/19
f 188/188/20 187/187/19 208/208/19 209/209/20
f 189/189/21 188/188/20 209/209/20 210/210/21
f 191/191/1 190/190/2 211/211/2 212/212/1
f 192/192/3 191/191/1 212/212/1 213/213/3
f 193/193/4 192/192/3 213/213/3 214/214/4
f 194/194/5 193/193/4 214/214/4 215/215/5
f 195/195/6 194/194/5 215/215/5 216/216/6
f 196/196/7 195/195/6 216/216/6 217/217/7
f 197/197/8 196/196/7 217/217/7 218/218/8
f 198/198/9 197/197/8 218/218/8 219/219/9
f 199/199/10 198/198/9 219/219/9 220/220/10
f 200/200/11 199/199/10 220/220/10 221/221/11
f 201/201/12 200/200/11 221/221/11 222/222/12
f 202/202/13 201/201/12 222/222/12 223/223/13
f 203/203/14 202/202/13 223/223/13 224/224/14
f 204/204/15 203/203/14 224/224/14 225/225/15
f 205/205/16 204/204/15 225/225/15 226/226/16
f 206/206/17 205/205/16 226/226/16 227/227/17
f 207/207/18 206/206/17 227/227/17 228/228/18
f 208/208/19 207/207/18 228/228/18 229/229/19
f 209/209/20 208/208/19 229/229/19 230/230/20
f 210/210/21 209/209/20 230/230/20 231/231/21
f 212/212/1 211/211/2 232/232/2 233/233/1
f 213/213/3 212/212/1 233/233/1 234/234/3
f 214/214/4 213/213/3 234/234/3 235/235/4
f 215/215/5 214/214/4 235/235/4 236/236/5
f 216/216/6 215/215/5 236/236/5 237/237/6
f 217/217/7 216/216/6 237/237/6 238/238/7
f 218/218/8 217/217/7 238/238/7 239/239/8
f 219/219/9 218/218/8 239/239/8 240/240/9
f 220/220/10 219/219/9 240/240/9 241/241/10
f 221/221/11 220/220/10 241/241/10 242/242/11
f 222/222/12 221/221/11 242/242/11 243/243/12
f 223/223/13 222/222/12 243/243/12 244/244/13
f 224/224/14 223/223/13 244/244/13 245/245/14
f 225/225/15 224/224/14 245/245/14 246/246/15
f 226/226/16 225/225/15 246/246/15 247/247/16
f 227/227/17 226/226/16 247/247/16 248/248/17
f 228/228/18 227/227/17 248/248/17 249/249/18
f 229/229/19 228/228/18 249/249/18 250/250/19
f 230/230/20 229/229/19 250/250/19 251/251/20
f 231/231/21 230/230/20 251/251/20 252/252/21
