# Blender 3.4.1
# www.blender.org
o stage1_3_feed
v 0.500000 0.155001 -7.619993
v 0.500000 0.654872 -7.619993
v 0.000000 0.654872 -7.619993
v 0.000000 0.155001 -7.619993
v 0.999999 0.155001 -7.619993
v 0.999999 0.654872 -7.619993
v 1.499999 0.155001 -7.619993
v 1.499999 0.654872 -7.619994
v 1.999999 0.155001 -7.619994
v 1.999999 0.654872 -7.619994
v 2.499313 0.155001 -7.593826
v 2.499313 0.654872 -7.593826
v 2.996573 0.155001 -7.541562
v 2.996573 0.654872 -7.541562
v 3.490417 0.155001 -7.463344
v 3.490417 0.654872 -7.463344
v 3.979490 0.155001 -7.359390
v 3.979490 0.654872 -7.359390
v 4.462452 0.155001 -7.229981
v 4.462452 0.654872 -7.229981
v 4.933771 0.155001 -7.063077
v 4.933771 0.654872 -7.063077
v 5.390543 0.155000 -6.859708
v 5.390543 0.654872 -6.859708
v 5.829951 0.155000 -6.621128
v 5.829951 0.654872 -6.621128
v 6.249286 0.155000 -6.348808
v 6.249286 0.654872 -6.348808
v 6.645962 0.155000 -6.044427
v 6.645962 0.654872 -6.044427
v 7.017533 0.155000 -5.709861
v 7.017533 0.654872 -5.709861
v 7.361709 0.155000 -5.347175
v 7.361711 0.654872 -5.347175
v 7.676369 0.155000 -4.958600
v 7.676369 0.654872 -4.958600
v 7.959570 0.155000 -4.546535
v 7.959571 0.654872 -4.546535
v 8.209570 0.155000 -4.113523
v 8.209570 0.654872 -4.113523
v 8.424824 0.155000 -3.662230
v 8.424824 0.654872 -3.662230
v 0.500000 1.154744 -7.619993
v 0.000000 1.154744 -7.619993
v 0.999999 1.154744 -7.619993
v 1.499999 1.154744 -7.619994
v 1.999999 1.154744 -7.619994
v 2.499313 1.154744 -7.593826
v 2.996573 1.154744 -7.541562
v 3.490417 1.154744 -7.463344
v 3.979490 1.154744 -7.359390
v 4.462452 1.154744 -7.229981
v 4.933771 1.154744 -7.063077
v 5.390543 1.154743 -6.859708
v 5.829951 1.154743 -6.621128
v 6.249286 1.154744 -6.348808
v 6.645962 1.154743 -6.044427
v 7.017533 1.154743 -5.709861
v 7.361711 1.154743 -5.347175
v 7.676369 1.154743 -4.958600
v 7.959571 1.154743 -4.546535
v 8.209570 1.154743 -4.113523
v 8.424824 1.154743 -3.662230
v 0.500000 1.654615 -7.619992
v 0.000000 1.654615 -7.619992
v 0.999999 1.654615 -7.619992
v 1.499999 1.654615 -7.619994
v 1.999999 1.654615 -7.619994
v 2.499313 1.654615 -7.593826
v 2.996573 1.654615 -7.541561
v 3.490417 1.654615 -7.463343
v 3.979490 1.654615 -7.359389
v 4.462452 1.654615 -7.229981
v 4.933771 1.654615 -7.063077
v 5.390543 1.654615 -6.859707
v 5.829951 1.654615 -6.621127
v 6.249286 1.654615 -6.348807
v 6.645962 1.654615 -6.044427
v 7.017533 1.654615 -5.709861
v 7.361711 1.654615 -5.347174
v 7.676369 1.654615 -4.958600
v 7.959571 1.654615 -4.546535
v 8.209570 1.654615 -4.113522
v 8.424824 1.654615 -3.662230
v 0.500000 2.154487 -7.619992
v 0.000000 2.154487 -7.619992
v 0.999999 2.154487 -7.619992
v 1.499999 2.154487 -7.619994
v 1.999999 2.154487 -7.619994
v 2.499313 2.154487 -7.593826
v 2.996573 2.154487 -7.541561
v 3.490417 2.154487 -7.463343
v 3.979490 2.154487 -7.359389
v 4.462452 2.154486 -7.229981
v 4.933771 2.154486 -7.063077
v 5.390543 2.154486 -6.859707
v 5.829951 2.154486 -6.621127
v 6.249286 2.154486 -6.348807
v 6.645962 2.154486 -6.044427
v 7.017533 2.154486 -5.709861
v 7.361711 2.154486 -5.347174
v 7.676369 2.154486 -4.958600
v 7.959571 2.154486 -4.546535
v 8.209570 2.154486 -4.113523
v 8.424824 2.154486 -3.662230
v 0.500000 2.654358 -7.619992
v 0.000000 2.654358 -7.619992
v 0.999999 2.654358 -7.619992
v 1.499999 2.654358 -7.619994
v 1.999999 2.654358 -7.619994
v 2.499313 2.654358 -7.593826
v 2.996573 2.654358 -7.541561
v 3.490417 2.654358 -7.463343
v 3.979490 2.654358 -7.359389
v 4.462452 2.654358 -7.229981
v 4.933771 2.654358 -7.063077
v 5.390543 2.654358 -6.859707
v 5.829951 2.654358 -6.621127
v 6.249286 2.654358 -6.348807
v 6.645962 2.654358 -6.044427
v 7.017533 2.654358 -5.709861
v 7.361711 2.654358 -5.347174
v 7.676369 2.654358 -4.958600
v 7.959571 2.654358 -4.546535
v 8.209570 2.654358 -4.113523
v 8.424824 2.654358 -3.662230
v 0.500000 3.154230 -7.619993
v 0.000000 3.154230 -7.619993
v 0.999999 3.154230 -7.619993
v 1.499999 3.154230 -7.619994
v 1.999999 3.154230 -7.619994
v 2.499313 3.154230 -7.593826
v 2.996573 3.154230 -7.541561
v 3.490417 3.154230 -7.463343
v 3.979490 3.154230 -7.359389
v 4.462452 3.154229 -7.229981
v 4.933771 3.154229 -7.063077
v 5.390543 3.154229 -6.859707
v 5.829951 3.154229 -6.621127
v 6.249286 3.154229 -6.348807
v 6.645962 3.154229 -6.044427
v 7.017533 3.154229 -5.709861
v 7.361711 3.154229 -5.347174
v 7.676369 3.154229 -4.958600
v 7.959571 3.154229 -4.546535
v 8.209570 3.154229 -4.113523
v 8.424824 3.154229 -3.662230
v 0.500000 3.654101 -7.619993
v 0.000000 3.654101 -7.619993
v 0.999999 3.654101 -7.619993
v 1.499999 3.654101 -7.619994
v 1.999999 3.654101 -7.619994
v 2.499313 3.654101 -7.593826
v 2.996573 3.654101 -7.541561
v 3.490417 3.654101 -7.463343
v 3.979490 3.654101 -7.359389
v 4.462452 3.654100 -7.229981
v 4.933771 3.654100 -7.063077
v 5.390543 3.654101 -6.859707
v 5.829951 3.654101 -6.621127
v 6.249286 3.654101 -6.348807
v 6.645962 3.654101 -6.044427
v 7.017533 3.654101 -5.709861
v 7.361709 3.654101 -5.347174
v 7.676369 3.654100 -4.958600
v 7.959570 3.654100 -4.546535
v 8.209570 3.654101 -4.113523
v 8.424824 3.654100 -3.662230
v 0.500000 4.153973 -7.619993
v 0.000000 4.153973 -7.619993
v 0.999999 4.153973 -7.619993
v 1.499999 4.153973 -7.619994
v 1.999999 4.153973 -7.619994
v 2.499313 4.153973 -7.593826
v 2.996573 4.153973 -7.541561
v 3.490417 4.153973 -7.463343
v 3.979490 4.153973 -7.359389
v 4.462452 4.153973 -7.229981
v 4.933771 4.153973 -7.063077
v 5.390543 4.153973 -6.859707
v 5.829951 4.153973 -6.621127
v 6.249286 4.153973 -6.348808
v 6.645962 4.153973 -6.044427
v 7.017533 4.153973 -5.709861
v 7.361709 4.153973 -5.347174
v 7.676369 4.153973 -4.958600
v 7.959571 4.153973 -4.546535
v 8.209570 4.153972 -4.113523
v 8.424824 4.153972 -3.662230
v 0.500000 4.653844 -7.619992
v 0.000000 4.653844 -7.619992
v 0.999999 4.653844 -7.619992
v 1.499999 4.653844 -7.619993
v 1.999999 4.653844 -7.619993
v 2.499313 4.653844 -7.593825
v 2.996573 4.653844 -7.541561
v 3.490417 4.653844 -7.463343
v 3.979490 4.653844 -7.359389
v 4.462452 4.653844 -7.229980
v 4.933771 4.653844 -7.063076
v 5.390543 4.653844 -6.859707
v 5.829951 4.653844 -6.621127
v 6.249286 4.653844 -6.348808
v 6.645962 4.653844 -6.044426
v 7.017533 4.653844 -5.709860
v 7.361709 4.653844 -5.347174
v 7.676369 4.653844 -4.958599
v 7.959571 4.653844 -4.546535
v 8.209570 4.653843 -4.113522
v 8.424824 4.653843 -3.662230
v 0.500000 5.153716 -7.619992
v 0.000000 5.153716 -7.619992
v 0.999999 5.153716 -7.619992
v 1.499999 5.153716 -7.619993
v 1.999999 5.153716 -7.619993
v 2.499313 5.153716 -7.593825
v 2.996573 5.153716 -7.541561
v 3.490417 5.153716 -7.463343
v 3.979490 5.153716 -7.359389
v 4.462452 5.153715 -7.229980
v 4.933771 5.153715 -7.063076
v 5.390543 5.153715 -6.859707
v 5.829951 5.153715 -6.621127
v 6.249286 5.153715 -6.348808
v 6.645962 5.153715 -6.044426
v 7.017533 5.153716 -5.709860
v 7.361711 5.153716 -5.347174
v 7.676369 5.153716 -4.958599
v 7.959571 5.153715 -4.546535
v 8.209570 5.153715 -4.113522
v 8.424824 5.153715 -3.662230
v 0.500000 5.653587 -7.619992
v 0.000000 5.653587 -7.619992
v 0.999999 5.653587 -7.619993
v 1.499999 5.653587 -7.619993
v 1.999999 5.653587 -7.619993
v 2.499313 5.653587 -7.593825
v 2.996573 5.653587 -7.541561
v 3.490417 5.653587 -7.463343
v 3.979490 5.653587 -7.359389
v 4.462452 5.653586 -7.229980
v 4.933771 5.653586 -7.063076
v 5.390543 5.653586 -6.859707
v 5.829951 5.653586 -6.621127
v 6.249286 5.653586 -6.348808
v 6.645962 5.653586 -6.044426
v 7.017533 5.653586 -5.709860
v 7.361709 5.653587 -5.347174
v 7.676369 5.653587 -4.958599
v 7.959571 5.653587 -4.546535
v 8.209570 5.653586 -4.113522
v 8.424824 5.653586 -3.662230
vn -0.0000 -0.0000 1.0000
vn -0.0262 -0.0000 0.9997
vn -0.0785 -0.0000 0.9969
vn -0.1305 -0.0000 0.9914
vn -0.1822 -0.0000 0.9833
vn -0.2334 -0.0000 0.9724
vn -0.2965 -0.0000 0.9550
vn -0.3706 -0.0000 0.9288
vn -0.4423 -0.0000 0.8969
vn -0.5113 -0.0000 0.8594
vn -0.5771 -0.0000 0.8166
vn -0.6394 -0.0000 0.7688
vn -0.6978 -0.0000 0.7163
vn -0.7518 -0.0000 0.6593
vn -0.8013 -0.0000 0.5983
vn -0.8457 -0.0000 0.5336
vn -0.8850 -0.0000 0.4656
vn -0.9135 -0.0000 0.4067
vt 0.050049 0.000000
vt 0.050049 0.090820
vt 0.000000 0.090820
vt 0.000000 0.000000
vt 0.100098 0.000000
vt 0.100098 0.090820
vt 0.150146 0.000000
vt 0.150146 0.090820
vt 0.200195 0.000000
vt 0.200195 0.090820
vt 0.250244 0.000000
vt 0.250244 0.090820
vt 0.300293 0.000000
vt 0.300293 0.090820
vt 0.350342 0.000000
vt 0.350342 0.090820
vt 0.400391 0.000000
vt 0.400391 0.090820
vt 0.450439 0.000000
vt 0.450439 0.090820
vt 0.500488 0.000000
vt 0.500488 0.090820
vt 0.550537 0.000000
vt 0.550537 0.090820
vt 0.600586 0.000000
vt 0.600586 0.090820
vt 0.650635 0.000000
vt 0.650635 0.090820
vt 0.700684 0.000000
vt 0.700684 0.090820
vt 0.750732 0.000000
vt 0.750732 0.090820
vt 0.800781 0.000000
vt 0.800781 0.090820
vt 0.850830 0.000000
vt 0.850830 0.090820
vt 0.900879 0.000000
vt 0.900879 0.090820
vt 0.950928 0.000000
vt 0.950928 0.090820
vt 1.000977 0.000000
vt 1.000977 0.090820
vt 0.050049 0.181885
vt 0.000000 0.181885
vt 0.100098 0.181885
vt 0.150146 0.181885
vt 0.200195 0.181885
vt 0.250244 0.181885
vt 0.300293 0.181885
vt 0.350342 0.181885
vt 0.400391 0.181885
vt 0.450439 0.181885
vt 0.500488 0.181885
vt 0.550537 0.181885
vt 0.600586 0.181885
vt 0.650635 0.181885
vt 0.700684 0.181885
vt 0.750732 0.181885
vt 0.800781 0.181885
vt 0.850830 0.181885
vt 0.900879 0.181885
vt 0.950928 0.181885
vt 1.000977 0.181885
vt 0.050049 0.272705
vt 0.000000 0.272705
vt 0.100098 0.272705
vt 0.150146 0.272705
vt 0.200195 0.272705
vt 0.250244 0.272705
vt 0.300293 0.272705
vt 0.350342 0.272705
vt 0.400391 0.272705
vt 0.450439 0.272705
vt 0.500488 0.272705
vt 0.550537 0.272705
vt 0.600586 0.272705
vt 0.650635 0.272705
vt 0.700684 0.272705
vt 0.750732 0.272705
vt 0.800781 0.272705
vt 0.850830 0.272705
vt 0.900879 0.272705
vt 0.950928 0.272705
vt 1.000977 0.272705
vt 0.050049 0.363770
vt 0.000000 0.363770
vt 0.100098 0.363770
vt 0.150146 0.363770
vt 0.200195 0.363770
vt 0.250244 0.363770
vt 0.300293 0.363770
vt 0.350342 0.363770
vt 0.400391 0.363770
vt 0.450439 0.363770
vt 0.500488 0.363770
vt 0.550537 0.363770
vt 0.600586 0.363770
vt 0.650635 0.363770
vt 0.700684 0.363770
vt 0.750732 0.363770
vt 0.800781 0.363770
vt 0.850830 0.363770
vt 0.900879 0.363770
vt 0.950928 0.363770
vt 1.000977 0.363770
vt 0.050049 0.454590
vt 0.000000 0.454590
vt 0.100098 0.454590
vt 0.150146 0.454590
vt 0.200195 0.454590
vt 0.250244 0.454590
vt 0.300293 0.454590
vt 0.350342 0.454590
vt 0.400391 0.454590
vt 0.450439 0.454590
vt 0.500488 0.454590
vt 0.550537 0.454590
vt 0.600586 0.454590
vt 0.650635 0.454590
vt 0.700684 0.454590
vt 0.750732 0.454590
vt 0.800781 0.454590
vt 0.850830 0.454590
vt 0.900879 0.454590
vt 0.950928 0.454590
vt 1.000977 0.454590
vt 0.050049 0.545654
vt 0.000000 0.545654
vt 0.100098 0.545654
vt 0.150146 0.545654
vt 0.200195 0.545654
vt 0.250244 0.545654
vt 0.300293 0.545654
vt 0.350342 0.545654
vt 0.400391 0.545654
vt 0.450439 0.545654
vt 0.500488 0.545654
vt 0.550537 0.545654
vt 0.600586 0.545654
vt 0.650635 0.545654
vt 0.700684 0.545654
vt 0.750732 0.545654
vt 0.800781 0.545654
vt 0.850830 0.545654
vt 0.900879 0.545654
vt 0.950928 0.545654
vt 1.000977 0.545654
vt 0.050049 0.636475
vt 0.000000 0.636475
vt 0.100098 0.636475
vt 0.150146 0.636475
vt 0.200195 0.636475
vt 0.250244 0.636475
vt 0.300293 0.636475
vt 0.350342 0.636475
vt 0.400391 0.636475
vt 0.450439 0.636475
vt 0.500488 0.636475
vt 0.550537 0.636475
vt 0.600586 0.636475
vt 0.650635 0.636475
vt 0.700684 0.636475
vt 0.750732 0.636475
vt 0.800781 0.636475
vt 0.850830 0.636475
vt 0.900879 0.636475
vt 0.950928 0.636475
vt 1.000977 0.636475
vt 0.050049 0.727539
vt 0.000000 0.727539
vt 0.100098 0.727539
vt 0.150146 0.727539
vt 0.200195 0.727539
vt 0.250244 0.727539
vt 0.300293 0.727539
vt 0.350342 0.727539
vt 0.400391 0.727539
vt 0.450439 0.727539
vt 0.500488 0.727539
vt 0.550537 0.727539
vt 0.600586 0.727539
vt 0.650635 0.727539
vt 0.700684 0.727539
vt 0.750732 0.727539
vt 0.800781 0.727539
vt 0.850830 0.727539
vt 0.900879 0.727539
vt 0.950928 0.727539
vt 1.000977 0.727539
vt 0.050049 0.818359
vt 0.000000 0.818359
vt 0.100098 0.818359
vt 0.150146 0.818359
vt 0.200195 0.818359
vt 0.250244 0.818359
vt 0.300293 0.818359
vt 0.350342 0.818359
vt 0.400391 0.818359
vt 0.450439 0.818359
vt 0.500488 0.818359
vt 0.550537 0.818359
vt 0.600586 0.818359
vt 0.650635 0.818359
vt 0.700684 0.818359
vt 0.750732 0.818359
vt 0.800781 0.818359
vt 0.850830 0.818359
vt 0.900879 0.818359
vt 0.950928 0.818359
vt 1.000977 0.818359
vt 0.050049 0.909424
vt 0.000000 0.909424
vt 0.100098 0.909424
vt 0.150146 0.909424
vt 0.200195 0.909424
vt 0.250244 0.909424
vt 0.300293 0.909424
vt 0.350342 0.909424
vt 0.400391 0.909424
vt 0.450439 0.909424
vt 0.500488 0.909424
vt 0.550537 0.909424
vt 0.600586 0.909424
vt 0.650635 0.909424
vt 0.700684 0.909424
vt 0.750732 0.909424
vt 0.800781 0.909424
vt 0.850830 0.909424
vt 0.900879 0.909424
vt 0.950928 0.909424
vt 1.000977 0.909424
vt 0.050049 1.000244
vt 0.000000 1.000244
vt 0.100098 1.000244
vt 0.150146 1.000244
vt 0.200195 1.000244
vt 0.250244 1.000244
vt 0.300293 1.000244
vt 0.350342 1.000244
vt 0.400391 1.000244
vt 0.450439 1.000244
vt 0.500488 1.000244
vt 0.550537 1.000244
vt 0.600586 1.000244
vt 0.650635 1.000244
vt 0.700684 1.000244
vt 0.750732 1.000244
vt 0.800781 1.000244
vt 0.850830 1.000244
vt 0.900879 1.000244
vt 0.950928 1.000244
vt 1.000977 1.000244
s 1
f 1/1/1 2/2/1 3/3/1 4/4/1
f 5/5/1 6/6/1 2/2/1 1/1/1
f 7/7/1 8/8/1 6/6/1 5/5/1
f 9/9/2 10/10/2 8/8/1 7/7/1
f 11/11/3 12/12/3 10/10/2 9/9/2
f 13/13/4 14/14/4 12/12/3 11/11/3
f 15/15/5 16/16/5 14/14/4 13/13/4
f 17/17/6 18/18/6 16/16/5 15/15/5
f 19/19/7 20/20/7 18/18/6 17/17/6
f 21/21/8 22/22/8 20/20/7 19/19/7
f 23/23/9 24/24/9 22/22/8 21/21/8
f 25/25/10 26/26/10 24/24/9 23/23/9
f 27/27/11 28/28/11 26/26/10 25/25/10
f 29/29/12 30/30/12 28/28/11 27/27/11
f 31/31/13 32/32/13 30/30/12 29/29/12
f 33/33/14 34/34/14 32/32/13 31/31/13
f 35/35/15 36/36/15 34/34/14 33/33/14
f 37/37/16 38/38/16 36/36/15 35/35/15
f 39/39/17 40/40/17 38/38/16 37/37/16
f 41/41/18 42/42/18 40/40/17 39/39/17
f 2/2/1 43/43/1 44/44/1 3/3/1
f 6/6/1 45/45/1 43/43/1 2/2/1
f 8/8/1 46/46/1 45/45/1 6/6/1
f 10/10/2 47/47/2 46/46/1 8/8/1
f 12/12/3 48/48/3 47/47/2 10/10/2
f 14/14/4 49/49/4 48/48/3 12/12/3
f 16/16/5 50/50/5 49/49/4 14/14/4
f 18/18/6 51/51/6 50/50/5 16/16/5
f 20/20/7 52/52/7 51/51/6 18/18/6
f 22/22/8 53/53/8 52/52/7 20/20/7
f 24/24/9 54/54/9 53/53/8 22/22/8
f 26/26/10 55/55/10 54/54/9 24/24/9
f 28/28/11 56/56/11 55/55/10 26/26/10
f 30/30/12 57/57/12 56/56/11 28/28/11
f 32/32/13 58/58/13 57/57/12 30/30/12
f 34/34/14 59/59/14 58/58/13 32/32/13
f 36/36/15 60/60/15 59/59/14 34/34/14
f 38/38/16 61/61/16 60/60/15 36/36/15
f 40/40/17 62/62/17 61/61/16 38/38/16
f 42/42/18 63/63/18 62/62/17 40/40/17
f 43/43/1 64/64/1 65/65/1 44/44/1
f 45/45/1 66/66/1 64/64/1 43/43/1
f 46/46/1 67/67/1 66/66/1 45/45/1
f 47/47/2 68/68/2 67/67/1 46/46/1
f 48/48/3 69/69/3 68/68/2 47/47/2
f 49/49/4 70/70/4 69/69/3 48/48/3
f 50/50/5 71/71/5 70/70/4 49/49/4
f 51/51/6 72/72/6 71/71/5 50/50/5
f 52/52/7 73/73/7 72/72/6 51/51/6
f 53/53/8 74/74/8 73/73/7 52/52/7
f 54/54/9 75/75/9 74/74/8 53/53/8
f 55/55/10 76/76/10 75/75/9 54/54/9
f 56/56/11 77/77/11 76/76/10 55/55/10
f 57/57/12 78/78/12 77/77/11 56/56/11
f 58/58/13 79/79/13 78/78/12 57/57/12
f 59/59/14 80/80/14 79/79/13 58/58/13
f 60/60/15 81/81/15 80/80/14 59/59/14
f 61/61/16 82/82/16 81/81/15 60/60/15
f 62/62/17 83/83/17 82/82/16 61/61/16
f 63/63/18 84/84/18 83/83/17 62/62/17
f 64/64/1 85/85/1 86/86/1 65/65/1
f 66/66/1 87/87/1 85/85/1 64/64/1
f 67/67/1 88/88/1 87/87/1 66/66/1
f 68/68/2 89/89/2 88/88/1 67/67/1
f 69/69/3 90/90/3 89/89/2 68/68/2
f 70/70/4 91/91/4 90/90/3 69/69/3
f 71/71/5 92/92/5 91/91/4 70/70/4
f 72/72/6 93/93/6 92/92/5 71/71/5
f 73/73/7 94/94/7 93/93/6 72/72/6
f 74/74/8 95/95/8 94/94/7 73/73/7
f 75/75/9 96/96/9 95/95/8 74/74/8
f 76/76/10 97/97/10 96/96/9 75/75/9
f 77/77/11 98/98/11 97/97/10 76/76/10
f 78/78/12 99/99/12 98/98/11 77/77/11
f 79/79/13 100/100/13 99/99/12 78/78/12
f 80/80/14 101/101/14 100/100/13 79/79/13
f 81/81/15 102/102/15 101/101/14 80/80/14
f 82/82/16 103/103/16 102/102/15 81/81/15
f 83/83/17 104/104/17 103/103/16 82/82/16
f 84/84/18 105/105/18 104/104/17 83/83/17
f 85/85/1 106/106/1 107/107/1 86/86/1
f 87/87/1 108/108/1 106/106/1 85/85/1
f 88/88/1 109/109/1 108/108/1 87/87/1
f 89/89/2 110/110/2 109/109/1 88/88/1
f 90/90/3 111/111/3 110/110/2 89/89/2
f 91/91/4 112/112/4 111/111/3 90/90/3
f 92/92/5 113/113/5 112/112/4 91/91/4
f 93/93/6 114/114/6 113/113/5 92/92/5
f 94/94/7 115/115/7 114/114/6 93/93/6
f 95/95/8 116/116/8 115/115/7 94/94/7
f 96/96/9 117/117/9 116/116/8 95/95/8
f 97/97/10 118/118/10 117/117/9 96/96/9
f 98/98/11 119/119/11 118/118/10 97/97/10
f 99/99/12 120/120/12 119/119/11 98/98/11
f 100/100/13 121/121/13 120/120/12 99/99/12
f 101/101/14 122/122/14 121/121/13 100/100/13
f 102/102/15 123/123/15 122/122/14 101/101/14
f 103/103/16 124/124/16 123/123/15 102/102/15
f 104/104/17 125/125/17 124/124/16 103/103/16
f 105/105/18 126/126/18 125/125/17 104/104/17
f 106/106/1 127/127/1 128/128/1 107/107/1
f 108/108/1 129/129/1 127/127/1 106/106/1
f 109/109/1 130/130/1 129/129/1 108/108/1
f 110/110/2 131/131/2 130/130/1 109/109/1
f 111/111/3 132/132/3 131/131/2 110/110/2
f 112/112/4 133/133/4 132/132/3 111/111/3
f 113/113/5 134/134/5 133/133/4 112/112/4
f 114/114/6 135/135/6 134/134/5 113/113/5
f 115/115/7 136/136/7 135/135/6 114/114/6
f 116/116/8 137/137/8 136/136/7 115/115/7
f 117/117/9 138/138/9 137/137/8 116/116/8
f 118/118/10 139/139/10 138/138/9 117/117/9
f 119/119/11 140/140/11 139/139/10 118/118/10
f 120/120/12 141/141/12 140/140/11 119/119/11
f 121/121/13 142/142/13 141/141/12 120/120/12
f 122/122/14 143/143/14 142/142/13 121/121/13
f 123/123/15 144/144/15 143/143/14 122/122/14
f 124/124/16 145/145/16 144/144/15 123/123/15
f 125/125/17 146/146/17 145/145/16 124/124/16
f 126/126/18 147/147/18 146/146/17 125/125/17
f 127/127/1 148/148/1 149/149/1 128/128/1
f 129/129/1 150/150/1 148/148/1 127/127/1
f 130/130/1 151/151/1 150/150/1 129/129/1
f 131/131/2 152/152/2 151/151/1 130/130/1
f 132/132/3 153/153/3 152/152/2 131/131/2
f 133/133/4 154/154/4 153/153/3 132/132/3
f 134/134/5 155/155/5 154/154/4 133/133/4
f 135/135/6 156/156/6 155/155/5 134/134/5
f 136/136/7 157/157/7 156/156/6 135/135/6
f 137/137/8 158/158/8 157/157/7 136/136/7
f 138/138/9 159/159/9 158/158/8 137/137/8
f 139/139/10 160/160/10 159/159/9 138/138/9
f 140/140/11 161/161/11 160/160/10 139/139/10
f 141/141/12 162/162/12 161/161/11 140/140/11
f 142/142/13 163/163/13 162/162/12 141/141/12
f 143/143/14 164/164/14 163/163/13 142/142/13
f 144/144/15 165/165/15 164/164/14 143/143/14
f 145/145/16 166/166/16 165/165/15 144/144/15
f 146/146/17 167/167/17 166/166/16 145/145/16
f 147/147/18 168/168/18 167/167/17 146/146/17
f 148/148/1 169/169/1 170/170/1 149/149/1
f 150/150/1 171/171/1 169/169/1 148/148/1
f 151/151/1 172/172/1 171/171/1 150/150/1
f 152/152/2 173/173/2 172/172/1 151/151/1
f 153/153/3 174/174/3 173/173/2 152/152/2
f 154/154/4 175/175/4 174/174/3 153/153/3
f 155/155/5 176/176/5 175/175/4 154/154/4
f 156/156/6 177/177/6 176/176/5 155/155/5
f 157/157/7 178/178/7 177/177/6 156/156/6
f 158/158/8 179/179/8 178/178/7 157/157/7
f 159/159/9 180/180/9 179/179/8 158/158/8
f 160/160/10 181/181/10 180/180/9 159/159/9
f 161/161/11 182/182/11 181/181/10 160/160/10
f 162/162/12 183/183/12 182/182/11 161/161/11
f 163/163/13 184/184/13 183/183/12 162/162/12
f 164/164/14 185/185/14 184/184/13 163/163/13
f 165/165/15 186/186/15 185/185/14 164/164/14
f 166/166/16 187/187/16 186/186/15 165/165/15
f 167/167/17 188/188/17 187/187/16 166/166/16
f 168/168/18 189/189/18 188/188/17 167/167/17
f 169/169/1 190/190/1 191/191/1 170/170/1
f 171/171/1 192/192/1 190/190/1 169/169/1
f 172/172/1 193/193/1 192/192/1 171/171/1
f 173/173/2 194/194/2 193/193/1 172/172/1
f 174/174/3 195/195/3 194/194/2 173/173/2
f 175/175/4 196/196/4 195/195/3 174/174/3
f 176/176/5 197/197/5 196/196/4 175/175/4
f 177/177/6 198/198/6 197/197/5 176/176/5
f 178/178/7 199/199/7 198/198/6 177/177/6
f 179/179/8 200/200/8 199/199/7 178/178/7
f 180/180/9 201/201/9 200/200/8 179/179/8
f 181/181/10 202/202/10 201/201/9 180/180/9
f 182/182/11 203/203/11 202/202/10 181/181/10
f 183/183/12 204/204/12 203/203/11 182/182/11
f 184/184/13 205/205/13 204/204/12 183/183/12
f 185/185/14 206/206/14 205/205/13 184/184/13
f 186/186/15 207/207/15 206/206/14 185/185/14
f 187/187/16 208/208/16 207/207/15 186/186/15
f 188/188/17 209/209/17 208/208/16 187/187/16
f 189/189/18 210/210/18 209/209/17 188/188/17
f 190/190/1 211/211/1 212/212/1 191/191/1
f 192/192/1 213/213/1 211/211/1 190/190/1
f 193/193/1 214/214/1 213/213/1 192/192/1
f 194/194/2 215/215/2 214/214/1 193/193/1
f 195/195/3 216/216/3 215/215/2 194/194/2
f 196/196/4 217/217/4 216/216/3 195/195/3
f 197/197/5 218/218/5 217/217/4 196/196/4
f 198/198/6 219/219/6 218/218/5 197/197/5
f 199/199/7 220/220/7 219/219/6 198/198/6
f 200/200/8 221/221/8 220/220/7 199/199/7
f 201/201/9 222/222/9 221/221/8 200/200/8
f 202/202/10 223/223/10 222/222/9 201/201/9
f 203/203/11 224/224/11 223/223/10 202/202/10
f 204/204/12 225/225/12 224/224/11 203/203/11
f 205/205/13 226/226/13 225/225/12 204/204/12
f 206/206/14 227/227/14 226/226/13 205/205/13
f 207/207/15 228/228/15 227/227/14 206/206/14
f 208/208/16 229/229/16 228/228/15 207/207/15
f 209/209/17 230/230/17 229/229/16 208/208/16
f 210/210/18 231/231/18 230/230/17 209/209/17
f 211/211/1 232/232/1 233/233/1 212/212/1
f 213/213/1 234/234/1 232/232/1 211/211/1
f 214/214/1 235/235/1 234/234/1 213/213/1
f 215/215/2 236/236/2 235/235/1 214/214/1
f 216/216/3 237/237/3 236/236/2 215/215/2
f 217/217/4 238/238/4 237/237/3 216/216/3
f 218/218/5 239/239/5 238/238/4 217/217/4
f 219/219/6 240/240/6 239/239/5 218/218/5
f 220/220/7 241/241/7 240/240/6 219/219/6
f 221/221/8 242/242/8 241/241/7 220/220/7
f 222/222/9 243/243/9 242/242/8 221/221/8
f 223/223/10 244/244/10 243/243/9 222/222/9
f 224/224/11 245/245/11 244/244/10 223/223/10
f 225/225/12 246/246/12 245/245/11 224/224/11
f 226/226/13 247/247/13 246/246/12 225/225/12
f 227/227/14 248/248/14 247/247/13 226/226/13
f 228/228/15 249/249/15 248/248/14 227/227/14
f 229/229/16 250/250/16 249/249/15 228/228/15
f 230/230/17 251/251/17 250/250/16 229/229/16
f 231/231/18 252/252/18 251/251/17 230/230/17
