# Blender 3.6.7
# www.blender.org
mtllib Screen_2.mtl
o stage1_2_feed
v -0.499999 0.155000 -7.619993
v 0.000000 0.155000 -7.619993
v 0.000000 0.654871 -7.619993
v -0.499999 0.654871 -7.619993
v -0.999999 0.155000 -7.619993
v -0.999999 0.654871 -7.619993
v -1.499999 0.155000 -7.619993
v -1.499999 0.654871 -7.619993
v -1.999998 0.155000 -7.619994
v -1.999998 0.654871 -7.619994
v -2.499312 0.155000 -7.593826
v -2.499312 0.654871 -7.593826
v -2.996573 0.155000 -7.541562
v -2.996573 0.654871 -7.541562
v -3.490417 0.155000 -7.463346
v -3.490416 0.654871 -7.463346
v -3.979490 0.155000 -7.359391
v -3.979490 0.654871 -7.359391
v -4.462452 0.155000 -7.229983
v -4.462452 0.654871 -7.229983
v -4.933771 0.155000 -7.063078
v -4.933771 0.654871 -7.063078
v -5.390543 0.154999 -6.859709
v -5.390543 0.654871 -6.859709
v -5.829952 0.154999 -6.621130
v -5.829952 0.654872 -6.621130
v -6.249287 0.155000 -6.348810
v -6.249287 0.654872 -6.348810
v -6.645963 0.155000 -6.044430
v -6.645963 0.654872 -6.044430
v -7.017535 0.155000 -5.709865
v -7.017535 0.654872 -5.709865
v -7.361712 0.155000 -5.347179
v -7.361712 0.654872 -5.347179
v -7.676372 0.155000 -4.958605
v -7.676372 0.654872 -4.958605
v -7.959574 0.155000 -4.546540
v -7.959574 0.654872 -4.546540
v -8.209573 0.155000 -4.113528
v -8.209573 0.654872 -4.113528
v -8.424829 0.155000 -3.662235
v -8.424829 0.654872 -3.662235
v 0.000000 1.154743 -7.619993
v -0.499999 1.154743 -7.619993
v -0.999999 1.154743 -7.619993
v -1.499999 1.154743 -7.619993
v -1.999998 1.154743 -7.619994
v -2.499312 1.154743 -7.593826
v -2.996573 1.154743 -7.541562
v -3.490416 1.154743 -7.463346
v -3.979490 1.154743 -7.359391
v -4.462452 1.154743 -7.229983
v -4.933771 1.154744 -7.063078
v -5.390543 1.154742 -6.859709
v -5.829952 1.154742 -6.621130
v -6.249287 1.154744 -6.348810
v -6.645963 1.154742 -6.044430
v -7.017535 1.154742 -5.709865
v -7.361712 1.154743 -5.347179
v -7.676372 1.154743 -4.958605
v -7.959574 1.154743 -4.546540
v -8.209573 1.154743 -4.113528
v -8.424829 1.154743 -3.662235
v 0.000000 1.654614 -7.619992
v -0.499999 1.654614 -7.619992
v -0.999999 1.654614 -7.619992
v -1.499999 1.654614 -7.619992
v -1.999998 1.654614 -7.619994
v -2.499312 1.654614 -7.593826
v -2.996573 1.654614 -7.541562
v -3.490416 1.654614 -7.463345
v -3.979490 1.654614 -7.359391
v -4.462452 1.654614 -7.229983
v -4.933771 1.654615 -7.063077
v -5.390543 1.654615 -6.859709
v -5.829952 1.654615 -6.621129
v -6.249287 1.654615 -6.348810
v -6.645963 1.654615 -6.044430
v -7.017535 1.654615 -5.709865
v -7.361712 1.654615 -5.347178
v -7.676372 1.654615 -4.958604
v -7.959574 1.654615 -4.546540
v -8.209573 1.654615 -4.113527
v -8.424829 1.654615 -3.662235
v 0.000000 2.154486 -7.619992
v -0.499999 2.154486 -7.619992
v -0.999999 2.154486 -7.619992
v -1.499999 2.154486 -7.619992
v -1.999998 2.154486 -7.619994
v -2.499312 2.154486 -7.593826
v -2.996573 2.154486 -7.541562
v -3.490416 2.154486 -7.463345
v -3.979490 2.154486 -7.359391
v -4.462452 2.154486 -7.229983
v -4.933771 2.154485 -7.063077
v -5.390543 2.154485 -6.859709
v -5.829952 2.154485 -6.621129
v -6.249287 2.154485 -6.348810
v -6.645963 2.154485 -6.044430
v -7.017535 2.154485 -5.709865
v -7.361712 2.154485 -5.347178
v -7.676372 2.154485 -4.958604
v -7.959574 2.154486 -4.546540
v -8.209573 2.154486 -4.113527
v -8.424829 2.154486 -3.662235
v 0.000000 2.654357 -7.619992
v -0.499999 2.654357 -7.619992
v -0.999999 2.654357 -7.619992
v -1.499999 2.654357 -7.619992
v -1.999998 2.654357 -7.619994
v -2.499312 2.654357 -7.593826
v -2.996573 2.654357 -7.541562
v -3.490416 2.654357 -7.463345
v -3.979490 2.654357 -7.359391
v -4.462452 2.654357 -7.229983
v -4.933771 2.654357 -7.063077
v -5.390543 2.654357 -6.859709
v -5.829952 2.654357 -6.621129
v -6.249287 2.654357 -6.348810
v -6.645963 2.654357 -6.044430
v -7.017535 2.654357 -5.709865
v -7.361712 2.654357 -5.347178
v -7.676372 2.654357 -4.958604
v -7.959574 2.654358 -4.546540
v -8.209573 2.654358 -4.113527
v -8.424829 2.654358 -3.662235
v 0.000000 3.154230 -7.619993
v -0.499999 3.154230 -7.619993
v -0.999999 3.154230 -7.619993
v -1.499999 3.154230 -7.619993
v -1.999998 3.154230 -7.619994
v -2.499312 3.154230 -7.593826
v -2.996573 3.154230 -7.541562
v -3.490416 3.154230 -7.463345
v -3.979490 3.154230 -7.359391
v -4.462452 3.154228 -7.229983
v -4.933771 3.154228 -7.063077
v -5.390543 3.154228 -6.859709
v -5.829952 3.154228 -6.621129
v -6.249287 3.154228 -6.348810
v -6.645963 3.154228 -6.044430
v -7.017535 3.154228 -5.709865
v -7.361712 3.154228 -5.347178
v -7.676372 3.154228 -4.958604
v -7.959574 3.154229 -4.546540
v -8.209573 3.154229 -4.113527
v -8.424829 3.154229 -3.662235
v 0.000000 3.654100 -7.619994
v -0.499999 3.654100 -7.619994
v -0.999999 3.654100 -7.619994
v -1.499999 3.654100 -7.619994
v -1.999998 3.654100 -7.619995
v -2.499312 3.654100 -7.593826
v -2.996573 3.654100 -7.541563
v -3.490416 3.654100 -7.463346
v -3.979490 3.654100 -7.359392
v -4.462452 3.654100 -7.229983
v -4.933771 3.654099 -7.063077
v -5.390543 3.654100 -6.859709
v -5.829952 3.654100 -6.621130
v -6.249287 3.654100 -6.348811
v -6.645963 3.654100 -6.044430
v -7.017535 3.654100 -5.709866
v -7.361712 3.654100 -5.347178
v -7.676372 3.654099 -4.958604
v -7.959574 3.654100 -4.546540
v -8.209573 3.654100 -4.113527
v -8.424829 3.654100 -3.662235
v 0.000000 4.153973 -7.619994
v -0.499999 4.153973 -7.619994
v -0.999999 4.153973 -7.619994
v -1.499999 4.153973 -7.619994
v -1.999998 4.153973 -7.619995
v -2.499312 4.153973 -7.593826
v -2.996573 4.153973 -7.541563
v -3.490416 4.153973 -7.463346
v -3.979490 4.153973 -7.359392
v -4.462452 4.153973 -7.229983
v -4.933771 4.153973 -7.063077
v -5.390543 4.153973 -6.859709
v -5.829952 4.153973 -6.621130
v -6.249287 4.153973 -6.348811
v -6.645963 4.153973 -6.044430
v -7.017535 4.153973 -5.709866
v -7.361712 4.153973 -5.347178
v -7.676372 4.153973 -4.958604
v -7.959574 4.153973 -4.546540
v -8.209573 4.153972 -4.113527
v -8.424829 4.153972 -3.662235
v 0.000000 4.653843 -7.619992
v -0.499999 4.653843 -7.619992
v -0.999999 4.653843 -7.619992
v -1.499999 4.653843 -7.619992
v -1.999998 4.653843 -7.619994
v -2.499312 4.653843 -7.593825
v -2.996573 4.653843 -7.541562
v -3.490416 4.653843 -7.463346
v -3.979490 4.653843 -7.359390
v -4.462452 4.653843 -7.229982
v -4.933771 4.653843 -7.063077
v -5.390543 4.653843 -6.859708
v -5.829952 4.653843 -6.621130
v -6.249287 4.653843 -6.348811
v -6.645963 4.653843 -6.044429
v -7.017535 4.653843 -5.709865
v -7.361712 4.653843 -5.347178
v -7.676372 4.653843 -4.958604
v -7.959574 4.653843 -4.546539
v -8.209573 4.653842 -4.113527
v -8.424829 4.653842 -3.662235
v 0.000000 5.153716 -7.619992
v -0.499999 5.153716 -7.619992
v -0.999999 5.153716 -7.619992
v -1.499999 5.153716 -7.619992
v -1.999998 5.153716 -7.619994
v -2.499312 5.153716 -7.593825
v -2.996573 5.153716 -7.541563
v -3.490416 5.153716 -7.463346
v -3.979490 5.153716 -7.359390
v -4.462452 5.153715 -7.229982
v -4.933771 5.153715 -7.063077
v -5.390543 5.153715 -6.859708
v -5.829952 5.153715 -6.621130
v -6.249287 5.153715 -6.348811
v -6.645963 5.153715 -6.044429
v -7.017535 5.153716 -5.709865
v -7.361712 5.153716 -5.347178
v -7.676372 5.153716 -4.958604
v -7.959574 5.153716 -4.546539
v -8.209573 5.153715 -4.113527
v -8.424829 5.153715 -3.662235
v 0.000000 5.653586 -7.619992
v -0.499999 5.653586 -7.619992
v -0.999999 5.653586 -7.619992
v -1.499999 5.653586 -7.619992
v -1.999998 5.653586 -7.619994
v -2.499312 5.653586 -7.593825
v -2.996573 5.653586 -7.541563
v -3.490417 5.653586 -7.463346
v -3.979490 5.653586 -7.359392
v -4.462452 5.653585 -7.229982
v -4.933771 5.653585 -7.063077
v -5.390543 5.653585 -6.859708
v -5.829952 5.653585 -6.621130
v -6.249287 5.653585 -6.348811
v -6.645963 5.653585 -6.044429
v -7.017535 5.653585 -5.709866
v -7.361712 5.653586 -5.347178
v -7.676372 5.653586 -4.958604
v -7.959574 5.653586 -4.546539
v -8.209573 5.653585 -4.113527
v -8.424829 5.653585 -3.662235
vn -0.0000 -0.0000 1.0000
vn 0.0262 -0.0000 0.9997
vn 0.0785 -0.0000 0.9969
vn 0.1305 -0.0000 0.9914
vn 0.1822 -0.0000 0.9833
vn 0.2334 -0.0000 0.9724
vn 0.2965 -0.0000 0.9550
vn 0.3706 -0.0000 0.9288
vn 0.4423 -0.0000 0.8969
vn 0.5113 -0.0000 0.8594
vn 0.5771 -0.0000 0.8166
vn 0.6394 -0.0000 0.7688
vn 0.6978 -0.0000 0.7163
vn 0.7518 -0.0000 0.6593
vn 0.8013 -0.0000 0.5983
vn 0.8457 -0.0000 0.5336
vn 0.8850 -0.0000 0.4656
vn 0.9135 -0.0000 0.4067
vt 0.950000 0.000001
vt 1.000000 0.000001
vt 1.000000 0.090910
vt 0.950000 0.090910
vt 0.900000 0.000001
vt 0.900000 0.090910
vt 0.850000 0.000001
vt 0.850000 0.090910
vt 0.800000 0.000001
vt 0.800000 0.090910
vt 0.750000 0.000001
vt 0.750000 0.090910
vt 0.700000 0.000001
vt 0.700000 0.090910
vt 0.650000 0.000001
vt 0.650000 0.090910
vt 0.600000 0.000001
vt 0.600000 0.090910
vt 0.550001 0.000001
vt 0.550001 0.090910
vt 0.500001 0.000001
vt 0.500001 0.090910
vt 0.450001 0.000001
vt 0.450001 0.090910
vt 0.400001 0.000000
vt 0.400000 0.090910
vt 0.350000 0.000001
vt 0.350001 0.090910
vt 0.300000 0.000000
vt 0.300000 0.090910
vt 0.250000 0.000001
vt 0.250000 0.090910
vt 0.200001 0.000001
vt 0.200001 0.090910
vt 0.150000 0.000001
vt 0.150000 0.090910
vt 0.100000 0.000000
vt 0.100000 0.090910
vt 0.050000 0.000001
vt 0.050000 0.090910
vt 0.000000 0.000001
vt 0.000000 0.090910
vt 1.000000 0.181819
vt 0.950000 0.181819
vt 0.900000 0.181819
vt 0.850000 0.181819
vt 0.800000 0.181819
vt 0.750000 0.181819
vt 0.700000 0.181819
vt 0.650000 0.181819
vt 0.600000 0.181819
vt 0.550001 0.181819
vt 0.500001 0.181819
vt 0.450001 0.181819
vt 0.400001 0.181819
vt 0.350000 0.181819
vt 0.300000 0.181819
vt 0.250000 0.181818
vt 0.200001 0.181819
vt 0.150000 0.181819
vt 0.100000 0.181819
vt 0.050000 0.181819
vt 0.000000 0.181819
vt 1.000000 0.272728
vt 0.950000 0.272728
vt 0.900000 0.272728
vt 0.850000 0.272728
vt 0.800000 0.272728
vt 0.750000 0.272728
vt 0.700000 0.272728
vt 0.650000 0.272728
vt 0.600000 0.272728
vt 0.550001 0.272728
vt 0.500000 0.272728
vt 0.450001 0.272728
vt 0.400000 0.272728
vt 0.350000 0.272728
vt 0.300000 0.272728
vt 0.250001 0.272728
vt 0.200000 0.272728
vt 0.150000 0.272728
vt 0.100000 0.272728
vt 0.050000 0.272728
vt 0.000000 0.272728
vt 1.000000 0.363637
vt 0.950000 0.363637
vt 0.900000 0.363637
vt 0.850000 0.363637
vt 0.800000 0.363637
vt 0.750000 0.363637
vt 0.700000 0.363637
vt 0.650000 0.363637
vt 0.600000 0.363637
vt 0.550001 0.363637
vt 0.500001 0.363637
vt 0.450001 0.363637
vt 0.400000 0.363636
vt 0.350000 0.363636
vt 0.300001 0.363636
vt 0.250000 0.363636
vt 0.200000 0.363636
vt 0.150000 0.363637
vt 0.100000 0.363636
vt 0.050000 0.363637
vt 0.000000 0.363637
vt 1.000000 0.454546
vt 0.950000 0.454546
vt 0.900000 0.454546
vt 0.850000 0.454546
vt 0.800000 0.454546
vt 0.750001 0.454546
vt 0.700000 0.454546
vt 0.650000 0.454546
vt 0.600000 0.454546
vt 0.550001 0.454546
vt 0.500001 0.454546
vt 0.450001 0.454546
vt 0.400000 0.454546
vt 0.350000 0.454546
vt 0.300000 0.454546
vt 0.250000 0.454546
vt 0.200000 0.454546
vt 0.150000 0.454546
vt 0.100000 0.454546
vt 0.050000 0.454546
vt 0.000000 0.454546
vt 1.000000 0.545455
vt 0.950000 0.545455
vt 0.900000 0.545455
vt 0.850000 0.545455
vt 0.800000 0.545455
vt 0.750000 0.545455
vt 0.700000 0.545455
vt 0.650000 0.545455
vt 0.600000 0.545455
vt 0.550001 0.545455
vt 0.500001 0.545455
vt 0.450001 0.545455
vt 0.400000 0.545455
vt 0.350000 0.545455
vt 0.300000 0.545455
vt 0.250000 0.545455
vt 0.200000 0.545455
vt 0.150000 0.545455
vt 0.100000 0.545455
vt 0.050000 0.545455
vt 0.000000 0.545455
vt 1.000000 0.636364
vt 0.950000 0.636364
vt 0.900000 0.636364
vt 0.850000 0.636364
vt 0.800000 0.636364
vt 0.750000 0.636364
vt 0.700000 0.636364
vt 0.650000 0.636364
vt 0.600000 0.636364
vt 0.550000 0.636364
vt 0.500001 0.636363
vt 0.450001 0.636364
vt 0.400000 0.636364
vt 0.350000 0.636364
vt 0.300000 0.636364
vt 0.250000 0.636364
vt 0.200000 0.636364
vt 0.150000 0.636363
vt 0.100000 0.636363
vt 0.050000 0.636364
vt 0.000000 0.636364
vt 1.000000 0.727273
vt 0.950000 0.727273
vt 0.900000 0.727273
vt 0.850000 0.727273
vt 0.800000 0.727273
vt 0.750000 0.727273
vt 0.700000 0.727273
vt 0.650000 0.727273
vt 0.600000 0.727273
vt 0.550000 0.727273
vt 0.500000 0.727273
vt 0.450000 0.727273
vt 0.400000 0.727273
vt 0.350000 0.727273
vt 0.300000 0.727273
vt 0.250000 0.727273
vt 0.200000 0.727273
vt 0.150000 0.727273
vt 0.100000 0.727273
vt 0.050000 0.727273
vt 0.000000 0.727273
vt 1.000000 0.818182
vt 0.950000 0.818182
vt 0.900000 0.818182
vt 0.850000 0.818182
vt 0.800000 0.818182
vt 0.750000 0.818182
vt 0.700000 0.818182
vt 0.650000 0.818182
vt 0.600000 0.818182
vt 0.550000 0.818182
vt 0.500001 0.818182
vt 0.450001 0.818182
vt 0.400000 0.818182
vt 0.350000 0.818182
vt 0.300000 0.818182
vt 0.250000 0.818182
vt 0.200000 0.818182
vt 0.150000 0.818182
vt 0.100000 0.818182
vt 0.050000 0.818181
vt 0.000000 0.818181
vt 1.000000 0.909091
vt 0.950000 0.909091
vt 0.900000 0.909091
vt 0.850000 0.909091
vt 0.800000 0.909091
vt 0.750000 0.909091
vt 0.700000 0.909091
vt 0.650000 0.909091
vt 0.600000 0.909091
vt 0.550000 0.909091
vt 0.500001 0.909091
vt 0.450000 0.909091
vt 0.400000 0.909091
vt 0.350000 0.909091
vt 0.300000 0.909091
vt 0.250000 0.909091
vt 0.200000 0.909091
vt 0.150000 0.909091
vt 0.100000 0.909091
vt 0.050000 0.909091
vt 0.000000 0.909091
vt 1.000000 1.000000
vt 0.950000 1.000000
vt 0.900000 1.000000
vt 0.850000 1.000000
vt 0.800000 1.000000
vt 0.750000 1.000000
vt 0.700000 1.000000
vt 0.650000 1.000000
vt 0.600000 1.000000
vt 0.550000 0.999999
vt 0.500001 0.999999
vt 0.450000 0.999999
vt 0.400000 0.999999
vt 0.350000 0.999999
vt 0.300000 0.999999
vt 0.250000 0.999999
vt 0.200000 1.000000
vt 0.150000 1.000000
vt 0.100000 1.000000
vt 0.050000 0.999999
vt 0.000000 0.999999
s 1
usemtl screen
f 1/1/1 2/2/1 3/3/1 4/4/1
f 5/5/1 1/1/1 4/4/1 6/6/1
f 7/7/1 5/5/1 6/6/1 8/8/1
f 9/9/2 7/7/1 8/8/1 10/10/2
f 11/11/3 9/9/2 10/10/2 12/12/3
f 13/13/4 11/11/3 12/12/3 14/14/4
f 15/15/5 13/13/4 14/14/4 16/16/5
f 17/17/6 15/15/5 16/16/5 18/18/6
f 19/19/7 17/17/6 18/18/6 20/20/7
f 21/21/8 19/19/7 20/20/7 22/22/8
f 23/23/9 21/21/8 22/22/8 24/24/9
f 25/25/10 23/23/9 24/24/9 26/26/10
f 27/27/11 25/25/10 26/26/10 28/28/11
f 29/29/12 27/27/11 28/28/11 30/30/12
f 31/31/13 29/29/12 30/30/12 32/32/13
f 33/33/14 31/31/13 32/32/13 34/34/14
f 35/35/15 33/33/14 34/34/14 36/36/15
f 37/37/16 35/35/15 36/36/15 38/38/16
f 39/39/17 37/37/16 38/38/16 40/40/17
f 41/41/18 39/39/17 40/40/17 42/42/18
f 4/4/1 3/3/1 43/43/1 44/44/1
f 6/6/1 4/4/1 44/44/1 45/45/1
f 8/8/1 6/6/1 45/45/1 46/46/1
f 10/10/2 8/8/1 46/46/1 47/47/2
f 12/12/3 10/10/2 47/47/2 48/48/3
f 14/14/4 12/12/3 48/48/3 49/49/4
f 16/16/5 14/14/4 49/49/4 50/50/5
f 18/18/6 16/16/5 50/50/5 51/51/6
f 20/20/7 18/18/6 51/51/6 52/52/7
f 22/22/8 20/20/7 52/52/7 53/53/8
f 24/24/9 22/22/8 53/53/8 54/54/9
f 26/26/10 24/24/9 54/54/9 55/55/10
f 28/28/11 26/26/10 55/55/10 56/56/11
f 30/30/12 28/28/11 56/56/11 57/57/12
f 32/32/13 30/30/12 57/57/12 58/58/13
f 34/34/14 32/32/13 58/58/13 59/59/14
f 36/36/15 34/34/14 59/59/14 60/60/15
f 38/38/16 36/36/15 60/60/15 61/61/16
f 40/40/17 38/38/16 61/61/16 62/62/17
f 42/42/18 40/40/17 62/62/17 63/63/18
f 44/44/1 43/43/1 64/64/1 65/65/1
f 45/45/1 44/44/1 65/65/1 66/66/1
f 46/46/1 45/45/1 66/66/1 67/67/1
f 47/47/2 46/46/1 67/67/1 68/68/2
f 48/48/3 47/47/2 68/68/2 69/69/3
f 49/49/4 48/48/3 69/69/3 70/70/4
f 50/50/5 49/49/4 70/70/4 71/71/5
f 51/51/6 50/50/5 71/71/5 72/72/6
f 52/52/7 51/51/6 72/72/6 73/73/7
f 53/53/8 52/52/7 73/73/7 74/74/8
f 54/54/9 53/53/8 74/74/8 75/75/9
f 55/55/10 54/54/9 75/75/9 76/76/10
f 56/56/11 55/55/10 76/76/10 77/77/11
f 57/57/12 56/56/11 77/77/11 78/78/12
f 58/58/13 57/57/12 78/78/12 79/79/13
f 59/59/14 58/58/13 79/79/13 80/80/14
f 60/60/15 59/59/14 80/80/14 81/81/15
f 61/61/16 60/60/15 81/81/15 82/82/16
f 62/62/17 61/61/16 82/82/16 83/83/17
f 63/63/18 62/62/17 83/83/17 84/84/18
f 65/65/1 64/64/1 85/85/1 86/86/1
f 66/66/1 65/65/1 86/86/1 87/87/1
f 67/67/1 66/66/1 87/87/1 88/88/1
f 68/68/2 67/67/1 88/88/1 89/89/2
f 69/69/3 68/68/2 89/89/2 90/90/3
f 70/70/4 69/69/3 90/90/3 91/91/4
f 71/71/5 70/70/4 91/91/4 92/92/5
f 72/72/6 71/71/5 92/92/5 93/93/6
f 73/73/7 72/72/6 93/93/6 94/94/7
f 74/74/8 73/73/7 94/94/7 95/95/8
f 75/75/9 74/74/8 95/95/8 96/96/9
f 76/76/10 75/75/9 96/96/9 97/97/10
f 77/77/11 76/76/10 97/97/10 98/98/11
f 78/78/12 77/77/11 98/98/11 99/99/12
f 79/79/13 78/78/12 99/99/12 100/100/13
f 80/80/14 79/79/13 100/100/13 101/101/14
f 81/81/15 80/80/14 101/101/14 102/102/15
f 82/82/16 81/81/15 102/102/15 103/103/16
f 83/83/17 82/82/16 103/103/16 104/104/17
f 84/84/18 83/83/17 104/104/17 105/105/18
f 86/86/1 85/85/1 106/106/1 107/107/1
f 87/87/1 86/86/1 107/107/1 108/108/1
f 88/88/1 87/87/1 108/108/1 109/109/1
f 89/89/2 88/88/1 109/109/1 110/110/2
f 90/90/3 89/89/2 110/110/2 111/111/3
f 91/91/4 90/90/3 111/111/3 112/112/4
f 92/92/5 91/91/4 112/112/4 113/113/5
f 93/93/6 92/92/5 113/113/5 114/114/6
f 94/94/7 93/93/6 114/114/6 115/115/7
f 95/95/8 94/94/7 115/115/7 116/116/8
f 96/96/9 95/95/8 116/116/8 117/117/9
f 97/97/10 96/96/9 117/117/9 118/118/10
f 98/98/11 97/97/10 118/118/10 119/119/11
f 99/99/12 98/98/11 119/119/11 120/120/12
f 100/100/13 99/99/12 120/120/12 121/121/13
f 101/101/14 100/100/13 121/121/13 122/122/14
f 102/102/15 101/101/14 122/122/14 123/123/15
f 103/103/16 102/102/15 123/123/15 124/124/16
f 104/104/17 103/103/16 124/124/16 125/125/17
f 105/105/18 104/104/17 125/125/17 126/126/18
f 107/107/1 106/106/1 127/127/1 128/128/1
f 108/108/1 107/107/1 128/128/1 129/129/1
f 109/109/1 108/108/1 129/129/1 130/130/1
f 110/110/2 109/109/1 130/130/1 131/131/2
f 111/111/3 110/110/2 131/131/2 132/132/3
f 112/112/4 111/111/3 132/132/3 133/133/4
f 113/113/5 112/112/4 133/133/4 134/134/5
f 114/114/6 113/113/5 134/134/5 135/135/6
f 115/115/7 114/114/6 135/135/6 136/136/7
f 116/116/8 115/115/7 136/136/7 137/137/8
f 117/117/9 116/116/8 137/137/8 138/138/9
f 118/118/10 117/117/9 138/138/9 139/139/10
f 119/119/11 118/118/10 139/139/10 140/140/11
f 120/120/12 119/119/11 140/140/11 141/141/12
f 121/121/13 120/120/12 141/141/12 142/142/13
f 122/122/14 121/121/13 142/142/13 143/143/14
f 123/123/15 122/122/14 143/143/14 144/144/15
f 124/124/16 123/123/15 144/144/15 145/145/16
f 125/125/17 124/124/16 145/145/16 146/146/17
f 126/126/18 125/125/17 146/146/17 147/147/18
f 128/128/1 127/127/1 148/148/1 149/149/1
f 129/129/1 128/128/1 149/149/1 150/150/1
f 130/130/1 129/129/1 150/150/1 151/151/1
f 131/131/2 130/130/1 151/151/1 152/152/2
f 132/132/3 131/131/2 152/152/2 153/153/3
f 133/133/4 132/132/3 153/153/3 154/154/4
f 134/134/5 133/133/4 154/154/4 155/155/5
f 135/135/6 134/134/5 155/155/5 156/156/6
f 136/136/7 135/135/6 156/156/6 157/157/7
f 137/137/8 136/136/7 157/157/7 158/158/8
f 138/138/9 137/137/8 158/158/8 159/159/9
f 139/139/10 138/138/9 159/159/9 160/160/10
f 140/140/11 139/139/10 160/160/10 161/161/11
f 141/141/12 140/140/11 161/161/11 162/162/12
f 142/142/13 141/141/12 162/162/12 163/163/13
f 143/143/14 142/142/13 163/163/13 164/164/14
f 144/144/15 143/143/14 164/164/14 165/165/15
f 145/145/16 144/144/15 165/165/15 166/166/16
f 146/146/17 145/145/16 166/166/16 167/167/17
f 147/147/18 146/146/17 167/167/17 168/168/18
f 149/149/1 148/148/1 169/169/1 170/170/1
f 150/150/1 149/149/1 170/170/1 171/171/1
f 151/151/1 150/150/1 171/171/1 172/172/1
f 152/152/2 151/151/1 172/172/1 173/173/2
f 153/153/3 152/152/2 173/173/2 174/174/3
f 154/154/4 153/153/3 174/174/3 175/175/4
f 155/155/5 154/154/4 175/175/4 176/176/5
f 156/156/6 155/155/5 176/176/5 177/177/6
f 157/157/7 156/156/6 177/177/6 178/178/7
f 158/158/8 157/157/7 178/178/7 179/179/8
f 159/159/9 158/158/8 179/179/8 180/180/9
f 160/160/10 159/159/9 180/180/9 181/181/10
f 161/161/11 160/160/10 181/181/10 182/182/11
f 162/162/12 161/161/11 182/182/11 183/183/12
f 163/163/13 162/162/12 183/183/12 184/184/13
f 164/164/14 163/163/13 184/184/13 185/185/14
f 165/165/15 164/164/14 185/185/14 186/186/15
f 166/166/16 165/165/15 186/186/15 187/187/16
f 167/167/17 166/166/16 187/187/16 188/188/17
f 168/168/18 167/167/17 188/188/17 189/189/18
f 170/170/1 169/169/1 190/190/1 191/191/1
f 171/171/1 170/170/1 191/191/1 192/192/1
f 172/172/1 171/171/1 192/192/1 193/193/1
f 173/173/2 172/172/1 193/193/1 194/194/2
f 174/174/3 173/173/2 194/194/2 195/195/3
f 175/175/4 174/174/3 195/195/3 196/196/4
f 176/176/5 175/175/4 196/196/4 197/197/5
f 177/177/6 176/176/5 197/197/5 198/198/6
f 178/178/7 177/177/6 198/198/6 199/199/7
f 179/179/8 178/178/7 199/199/7 200/200/8
f 180/180/9 179/179/8 200/200/8 201/201/9
f 181/181/10 180/180/9 201/201/9 202/202/10
f 182/182/11 181/181/10 202/202/10 203/203/11
f 183/183/12 182/182/11 203/203/11 204/204/12
f 184/184/13 183/183/12 204/204/12 205/205/13
f 185/185/14 184/184/13 205/205/13 206/206/14
f 186/186/15 185/185/14 206/206/14 207/207/15
f 187/187/16 186/186/15 207/207/15 208/208/16
f 188/188/17 187/187/16 208/208/16 209/209/17
f 189/189/18 188/188/17 209/209/17 210/210/18
f 191/191/1 190/190/1 211/211/1 212/212/1
f 192/192/1 191/191/1 212/212/1 213/213/1
f 193/193/1 192/192/1 213/213/1 214/214/1
f 194/194/2 193/193/1 214/214/1 215/215/2
f 195/195/3 194/194/2 215/215/2 216/216/3
f 196/196/4 195/195/3 216/216/3 217/217/4
f 197/197/5 196/196/4 217/217/4 218/218/5
f 198/198/6 197/197/5 218/218/5 219/219/6
f 199/199/7 198/198/6 219/219/6 220/220/7
f 200/200/8 199/199/7 220/220/7 221/221/8
f 201/201/9 200/200/8 221/221/8 222/222/9
f 202/202/10 201/201/9 222/222/9 223/223/10
f 203/203/11 202/202/10 223/223/10 224/224/11
f 204/204/12 203/203/11 224/224/11 225/225/12
f 205/205/13 204/204/12 225/225/12 226/226/13
f 206/206/14 205/205/13 226/226/13 227/227/14
f 207/207/15 206/206/14 227/227/14 228/228/15
f 208/208/16 207/207/15 228/228/15 229/229/16
f 209/209/17 208/208/16 229/229/16 230/230/17
f 210/210/18 209/209/17 230/230/17 231/231/18
f 212/212/1 211/211/1 232/232/1 233/233/1
f 213/213/1 212/212/1 233/233/1 234/234/1
f 214/214/1 213/213/1 234/234/1 235/235/1
f 215/215/2 214/214/1 235/235/1 236/236/2
f 216/216/3 215/215/2 236/236/2 237/237/3
f 217/217/4 216/216/3 237/237/3 238/238/4
f 218/218/5 217/217/4 238/238/4 239/239/5
f 219/219/6 218/218/5 239/239/5 240/240/6
f 220/220/7 219/219/6 240/240/6 241/241/7
f 221/221/8 220/220/7 241/241/7 242/242/8
f 222/222/9 221/221/8 242/242/8 243/243/9
f 223/223/10 222/222/9 243/243/9 244/244/10
f 224/224/11 223/223/10 244/244/10 245/245/11
f 225/225/12 224/224/11 245/245/11 246/246/12
f 226/226/13 225/225/12 246/246/12 247/247/13
f 227/227/14 226/226/13 247/247/13 248/248/14
f 228/228/15 227/227/14 248/248/14 249/249/15
f 229/229/16 228/228/15 249/249/15 250/250/16
f 230/230/17 229/229/16 250/250/16 251/251/17
f 231/231/18 230/230/17 251/251/17 252/252/18
